<?xml version="1.0" encoding="UTF-8"?>
        <svg xmlns="http://www.w3.org/2000/svg" xmlns:xlink="http://www.w3.org/1999/xlink"
             width="270" height="270" viewBox="0 -2700 2700 2700">

<defs>

</defs>

<rect fill="#84A1AE" height="70" rx="15" width="70" x="465" y="-535" />
<rect fill="#84A1AE" height="70" rx="15" width="70" x="465" y="-635" />
<rect fill="#84A1AE" height="70" rx="15" width="70" x="465" y="-735" />
<rect fill="#84A1AE" height="70" rx="15" width="70" x="465" y="-835" />
<rect fill="#84A1AE" height="70" rx="15" width="70" x="465" y="-935" />
<rect fill="#84A1AE" height="70" rx="15" width="70" x="465" y="-1035" />
<rect fill="#84A1AE" height="70" rx="15" width="70" x="465" y="-1135" />
<rect fill="#84A1AE" height="70" rx="15" width="70" x="465" y="-1235" />
<rect fill="#84A1AE" height="70" rx="15" width="70" x="465" y="-1335" />
<rect fill="#84A1AE" height="70" rx="15" width="70" x="465" y="-1435" />
<rect fill="#84A1AE" height="70" rx="15" width="70" x="465" y="-1535" />
<rect fill="#84A1AE" height="70" rx="15" width="70" x="465" y="-1635" />
<rect fill="#84A1AE" height="70" rx="15" width="70" x="465" y="-1735" />
<rect fill="#84A1AE" height="70" rx="15" width="70" x="465" y="-1835" />
<rect fill="#84A1AE" height="70" rx="15" width="70" x="465" y="-1935" />
<rect fill="#84A1AE" height="70" rx="15" width="70" x="465" y="-2035" />
<rect fill="#84A1AE" height="70" rx="15" width="70" x="465" y="-2135" />
<rect fill="#84A1AE" height="70" rx="15" width="70" x="465" y="-2235" />
<rect fill="#84A1AE" height="70" rx="15" width="70" x="565" y="-535" />
<rect fill="#84A1AE" height="70" rx="15" width="70" x="565" y="-835" />
<rect fill="#84A1AE" height="70" rx="15" width="70" x="565" y="-1035" />
<rect fill="#84A1AE" height="70" rx="15" width="70" x="565" y="-1435" />
<rect fill="#84A1AE" height="70" rx="15" width="70" x="565" y="-2235" />
<rect fill="#84A1AE" height="70" rx="15" width="70" x="665" y="-535" />
<rect fill="#84A1AE" height="70" rx="15" width="70" x="665" y="-2035" />
<rect fill="#84A1AE" height="70" rx="15" width="70" x="665" y="-2235" />
<rect fill="#84A1AE" height="70" rx="15" width="70" x="765" y="-535" />
<rect fill="#84A1AE" height="70" rx="15" width="70" x="765" y="-735" />
<rect fill="#84A1AE" height="70" rx="15" width="70" x="765" y="-935" />
<rect fill="#84A1AE" height="70" rx="15" width="70" x="765" y="-1035" />
<rect fill="#84A1AE" height="70" rx="15" width="70" x="765" y="-1235" />
<rect fill="#84A1AE" height="70" rx="15" width="70" x="765" y="-1435" />
<rect fill="#84A1AE" height="70" rx="15" width="70" x="765" y="-1635" />
<rect fill="#84A1AE" height="70" rx="15" width="70" x="765" y="-2235" />
<rect fill="#84A1AE" height="70" rx="15" width="70" x="865" y="-535" />
<rect fill="#84A1AE" height="70" rx="15" width="70" x="865" y="-635" />
<rect fill="#84A1AE" height="70" rx="15" width="70" x="865" y="-935" />
<rect fill="#84A1AE" height="70" rx="15" width="70" x="865" y="-1435" />
<rect fill="#84A1AE" height="70" rx="15" width="70" x="865" y="-1535" />
<rect fill="#84A1AE" height="70" rx="15" width="70" x="865" y="-2235" />
<rect fill="#84A1AE" height="70" rx="15" width="70" x="965" y="-535" />
<rect fill="#84A1AE" height="70" rx="15" width="70" x="965" y="-835" />
<rect fill="#84A1AE" height="70" rx="15" width="70" x="965" y="-2235" />
<rect fill="#84A1AE" height="70" rx="15" width="70" x="1065" y="-535" />
<rect fill="#84A1AE" height="70" rx="15" width="70" x="1065" y="-635" />
<rect fill="#84A1AE" height="70" rx="15" width="70" x="1065" y="-735" />
<rect fill="#84A1AE" height="70" rx="15" width="70" x="1065" y="-835" />
<rect fill="#84A1AE" height="70" rx="15" width="70" x="1065" y="-1635" />
<rect fill="#84A1AE" height="70" rx="15" width="70" x="1065" y="-1735" />
<rect fill="#84A1AE" height="70" rx="15" width="70" x="1065" y="-2235" />
<rect fill="#84A1AE" height="70" rx="15" width="70" x="1165" y="-535" />
<rect fill="#84A1AE" height="70" rx="15" width="70" x="1165" y="-735" />
<rect fill="#84A1AE" height="70" rx="15" width="70" x="1165" y="-1235" />
<rect fill="#84A1AE" height="70" rx="15" width="70" x="1165" y="-1835" />
<rect fill="#84A1AE" height="70" rx="15" width="70" x="1165" y="-1935" />
<rect fill="#84A1AE" height="70" rx="15" width="70" x="1165" y="-2235" />
<rect fill="#84A1AE" height="70" rx="15" width="70" x="1265" y="-535" />
<rect fill="#84A1AE" height="70" rx="15" width="70" x="1265" y="-935" />
<rect fill="#84A1AE" height="70" rx="15" width="70" x="1265" y="-1135" />
<rect fill="#84A1AE" height="70" rx="15" width="70" x="1265" y="-1535" />
<rect fill="#84A1AE" height="70" rx="15" width="70" x="1265" y="-1935" />
<rect fill="#84A1AE" height="70" rx="15" width="70" x="1265" y="-2235" />
<rect fill="#84A1AE" height="70" rx="15" width="70" x="1365" y="-535" />
<rect fill="#84A1AE" height="70" rx="15" width="70" x="1365" y="-635" />
<rect fill="#84A1AE" height="70" rx="15" width="70" x="1365" y="-1235" />
<rect fill="#84A1AE" height="70" rx="15" width="70" x="1365" y="-1935" />
<rect fill="#84A1AE" height="70" rx="15" width="70" x="1365" y="-2135" />
<rect fill="#84A1AE" height="70" rx="15" width="70" x="1365" y="-2235" />
<rect fill="#84A1AE" height="70" rx="15" width="70" x="1465" y="-535" />
<rect fill="#84A1AE" height="70" rx="15" width="70" x="1465" y="-1035" />
<rect fill="#84A1AE" height="70" rx="15" width="70" x="1465" y="-1535" />
<rect fill="#84A1AE" height="70" rx="15" width="70" x="1465" y="-2235" />
<rect fill="#84A1AE" height="70" rx="15" width="70" x="1565" y="-535" />
<rect fill="#84A1AE" height="70" rx="15" width="70" x="1565" y="-1135" />
<rect fill="#84A1AE" height="70" rx="15" width="70" x="1565" y="-2135" />
<rect fill="#84A1AE" height="70" rx="15" width="70" x="1565" y="-2235" />
<rect fill="#84A1AE" height="70" rx="15" width="70" x="1665" y="-535" />
<rect fill="#84A1AE" height="70" rx="15" width="70" x="1665" y="-1335" />
<rect fill="#84A1AE" height="70" rx="15" width="70" x="1665" y="-1535" />
<rect fill="#84A1AE" height="70" rx="15" width="70" x="1665" y="-1735" />
<rect fill="#84A1AE" height="70" rx="15" width="70" x="1665" y="-2235" />
<rect fill="#84A1AE" height="70" rx="15" width="70" x="1765" y="-535" />
<rect fill="#84A1AE" height="70" rx="15" width="70" x="1765" y="-2235" />
<rect fill="#84A1AE" height="70" rx="15" width="70" x="1865" y="-535" />
<rect fill="#84A1AE" height="70" rx="15" width="70" x="1865" y="-1335" />
<rect fill="#84A1AE" height="70" rx="15" width="70" x="1865" y="-2235" />
<rect fill="#84A1AE" height="70" rx="15" width="70" x="1965" y="-535" />
<rect fill="#84A1AE" height="70" rx="15" width="70" x="1965" y="-1435" />
<rect fill="#84A1AE" height="70" rx="15" width="70" x="1965" y="-1635" />
<rect fill="#84A1AE" height="70" rx="15" width="70" x="1965" y="-1935" />
<rect fill="#84A1AE" height="70" rx="15" width="70" x="1965" y="-2235" />
<rect fill="#84A1AE" height="70" rx="15" width="70" x="2065" y="-535" />
<rect fill="#84A1AE" height="70" rx="15" width="70" x="2065" y="-635" />
<rect fill="#84A1AE" height="70" rx="15" width="70" x="2065" y="-935" />
<rect fill="#84A1AE" height="70" rx="15" width="70" x="2065" y="-1235" />
<rect fill="#84A1AE" height="70" rx="15" width="70" x="2065" y="-1635" />
<rect fill="#84A1AE" height="70" rx="15" width="70" x="2065" y="-1735" />
<rect fill="#84A1AE" height="70" rx="15" width="70" x="2065" y="-2235" />
<rect fill="#84A1AE" height="70" rx="15" width="70" x="2165" y="-535" />
<rect fill="#84A1AE" height="70" rx="15" width="70" x="2165" y="-635" />
<rect fill="#84A1AE" height="70" rx="15" width="70" x="2165" y="-735" />
<rect fill="#84A1AE" height="70" rx="15" width="70" x="2165" y="-835" />
<rect fill="#84A1AE" height="70" rx="15" width="70" x="2165" y="-935" />
<rect fill="#84A1AE" height="70" rx="15" width="70" x="2165" y="-1035" />
<rect fill="#84A1AE" height="70" rx="15" width="70" x="2165" y="-1135" />
<rect fill="#84A1AE" height="70" rx="15" width="70" x="2165" y="-1235" />
<rect fill="#84A1AE" height="70" rx="15" width="70" x="2165" y="-1335" />
<rect fill="#84A1AE" height="70" rx="15" width="70" x="2165" y="-1435" />
<rect fill="#84A1AE" height="70" rx="15" width="70" x="2165" y="-1535" />
<rect fill="#84A1AE" height="70" rx="15" width="70" x="2165" y="-1635" />
<rect fill="#84A1AE" height="70" rx="15" width="70" x="2165" y="-1735" />
<rect fill="#84A1AE" height="70" rx="15" width="70" x="2165" y="-1835" />
<rect fill="#84A1AE" height="70" rx="15" width="70" x="2165" y="-1935" />
<rect fill="#84A1AE" height="70" rx="15" width="70" x="2165" y="-2035" />
<rect fill="#84A1AE" height="70" rx="15" width="70" x="2165" y="-2135" />
<rect fill="#84A1AE" height="70" rx="15" width="70" x="2165" y="-2235" />
<circle cx="1000" cy="-600" fill="#c1433c" r="35"> <animate attributeName="cy" dur="9.24s" keyTimes="0.0;0.0294117647;0.0588235294;0.6470588235;0.6764705882;0.7352941176;0.7647058824;0.7941176471;0.8235294118;0.9117647059;0.9411764706;0.9705882353;1.0" repeatCount="indefinite" values="-600;-600;-700;-700;-800;-800;-900;-1000;-1100;-1100;-1200;-1300;-1300"/>
<animate attributeName="cx" dur="9.24s" keyTimes="0.0;0.0294117647;0.0588235294;0.0882352941;0.6764705882;0.7058823529;0.7352941176;0.8235294118;0.8529411765;0.8823529412;0.9117647059;1.0" repeatCount="indefinite" values="1000;1000;1000;900;900;800;700;700;800;900;1000;1000"/>
<animate attributeName="visibility" dur="9.24s" keyTimes="0.0;0.0294117647;0.9411764706;0.9705882353;1.0" repeatCount="indefinite" values="visible;visible;visible;hidden;hidden"/> </circle>
<circle cx="1500" cy="-2100" fill="#2e6f9e" r="35"> <animate attributeName="cy" dur="9.24s" keyTimes="0.0;0.0294117647;0.0588235294;0.0882352941;0.1176470588;0.1764705882;0.2058823529;0.2647058824;0.2941176471;0.4117647059;0.4411764706;0.4705882353;0.5;0.5294117647;0.5588235294;0.5882352941;0.6176470588;0.6764705882;0.7058823529;0.7352941176;0.7647058824;0.7941176471;1.0" repeatCount="indefinite" values="-2100;-2100;-2000;-2100;-2000;-2000;-2100;-2100;-2000;-2000;-1900;-2000;-1900;-1800;-1800;-1700;-1600;-1600;-1500;-1500;-1400;-1300;-1300"/>
<animate attributeName="cx" dur="9.24s" keyTimes="0.0;0.0294117647;0.1176470588;0.1470588235;0.1764705882;0.2352941176;0.2647058824;0.2941176471;0.3235294118;0.3529411765;0.3823529412;0.5294117647;0.5588235294;0.6470588235;0.6764705882;0.7941176471;0.8235294118;0.8529411765;0.8823529412;0.9117647059;0.9411764706;1.0" repeatCount="indefinite" values="1500;1500;1500;1400;1300;1300;1200;1200;1100;1100;1000;1000;900;900;1000;1000;900;800;700;800;900;900"/>
<animate attributeName="visibility" dur="9.24s" keyTimes="0.0;0.0294117647;1.0" repeatCount="indefinite" values="visible;visible;visible"/> </circle>
<circle cx="2100" cy="-700" fill="#6e81af" r="35"> <animate attributeName="cy" dur="9.24s" keyTimes="0.0;0.0294117647;0.1176470588;0.1470588235;0.3235294118;0.3529411765;0.4411764706;0.4705882353;0.5;0.5294117647;0.5588235294;0.5882352941;0.6176470588;0.6470588235;0.6764705882;0.7058823529;0.7352941176;0.7647058824;0.7941176471;1.0" repeatCount="indefinite" values="-700;-700;-700;-600;-600;-700;-700;-800;-700;-800;-700;-800;-800;-900;-800;-900;-800;-900;-800;-800"/>
<animate attributeName="cx" dur="9.24s" keyTimes="0.0;0.0294117647;0.0588235294;0.0882352941;0.1176470588;0.1470588235;0.1764705882;0.2058823529;0.2352941176;0.2647058824;0.2941176471;0.3235294118;0.3823529412;0.4117647059;0.4411764706;0.5882352941;0.6176470588;0.8529411765;0.8823529412;0.9117647059;0.9411764706;1.0" repeatCount="indefinite" values="2100;2100;2100;2000;1900;1900;1800;1900;1800;1700;1600;1500;1500;1400;1300;1300;1200;1200;1300;1400;1300;1300"/>
<animate attributeName="visibility" dur="9.24s" keyTimes="0.0;0.0294117647;1.0" repeatCount="indefinite" values="visible;visible;visible"/> </circle>
<circle cx="2100" cy="-2100" fill="none" r="35" stroke="#c1433c" stroke-width="10"> <animate attributeName="cy" dur="9.24s" keyTimes="0.0;0.0294117647;1.0" repeatCount="indefinite" values="-2100;-2100;-2100"/>
<animate attributeName="cx" dur="9.24s" keyTimes="0.0;0.0294117647;1.0" repeatCount="indefinite" values="2100;2100;2100"/>
<animate attributeName="visibility" dur="9.24s" keyTimes="0.0;0.0294117647;0.9411764706;0.9705882353;1.0" repeatCount="indefinite" values="visible;visible;visible;hidden;hidden"/> </circle>
</svg>