<?xml version="1.0" encoding="UTF-8"?>
        <svg xmlns="http://www.w3.org/2000/svg" xmlns:xlink="http://www.w3.org/1999/xlink"
             width="270" height="270" viewBox="0 -2700 2700 2700">

<defs>

</defs>

<rect fill="#84A1AE" height="70" rx="15" width="70" x="465" y="-535" />
<rect fill="#84A1AE" height="70" rx="15" width="70" x="465" y="-635" />
<rect fill="#84A1AE" height="70" rx="15" width="70" x="465" y="-735" />
<rect fill="#84A1AE" height="70" rx="15" width="70" x="465" y="-835" />
<rect fill="#84A1AE" height="70" rx="15" width="70" x="465" y="-935" />
<rect fill="#84A1AE" height="70" rx="15" width="70" x="465" y="-1035" />
<rect fill="#84A1AE" height="70" rx="15" width="70" x="465" y="-1135" />
<rect fill="#84A1AE" height="70" rx="15" width="70" x="465" y="-1235" />
<rect fill="#84A1AE" height="70" rx="15" width="70" x="465" y="-1335" />
<rect fill="#84A1AE" height="70" rx="15" width="70" x="465" y="-1435" />
<rect fill="#84A1AE" height="70" rx="15" width="70" x="465" y="-1535" />
<rect fill="#84A1AE" height="70" rx="15" width="70" x="465" y="-1635" />
<rect fill="#84A1AE" height="70" rx="15" width="70" x="465" y="-1735" />
<rect fill="#84A1AE" height="70" rx="15" width="70" x="465" y="-1835" />
<rect fill="#84A1AE" height="70" rx="15" width="70" x="465" y="-1935" />
<rect fill="#84A1AE" height="70" rx="15" width="70" x="465" y="-2035" />
<rect fill="#84A1AE" height="70" rx="15" width="70" x="465" y="-2135" />
<rect fill="#84A1AE" height="70" rx="15" width="70" x="465" y="-2235" />
<rect fill="#84A1AE" height="70" rx="15" width="70" x="565" y="-535" />
<rect fill="#84A1AE" height="70" rx="15" width="70" x="565" y="-1435" />
<rect fill="#84A1AE" height="70" rx="15" width="70" x="565" y="-1635" />
<rect fill="#84A1AE" height="70" rx="15" width="70" x="565" y="-1835" />
<rect fill="#84A1AE" height="70" rx="15" width="70" x="565" y="-2235" />
<rect fill="#84A1AE" height="70" rx="15" width="70" x="665" y="-535" />
<rect fill="#84A1AE" height="70" rx="15" width="70" x="665" y="-835" />
<rect fill="#84A1AE" height="70" rx="15" width="70" x="665" y="-1035" />
<rect fill="#84A1AE" height="70" rx="15" width="70" x="665" y="-1335" />
<rect fill="#84A1AE" height="70" rx="15" width="70" x="665" y="-1635" />
<rect fill="#84A1AE" height="70" rx="15" width="70" x="665" y="-1935" />
<rect fill="#84A1AE" height="70" rx="15" width="70" x="665" y="-2235" />
<rect fill="#84A1AE" height="70" rx="15" width="70" x="765" y="-535" />
<rect fill="#84A1AE" height="70" rx="15" width="70" x="765" y="-635" />
<rect fill="#84A1AE" height="70" rx="15" width="70" x="765" y="-935" />
<rect fill="#84A1AE" height="70" rx="15" width="70" x="765" y="-1035" />
<rect fill="#84A1AE" height="70" rx="15" width="70" x="765" y="-1235" />
<rect fill="#84A1AE" height="70" rx="15" width="70" x="765" y="-2235" />
<rect fill="#84A1AE" height="70" rx="15" width="70" x="865" y="-535" />
<rect fill="#84A1AE" height="70" rx="15" width="70" x="865" y="-735" />
<rect fill="#84A1AE" height="70" rx="15" width="70" x="865" y="-935" />
<rect fill="#84A1AE" height="70" rx="15" width="70" x="865" y="-1235" />
<rect fill="#84A1AE" height="70" rx="15" width="70" x="865" y="-1435" />
<rect fill="#84A1AE" height="70" rx="15" width="70" x="865" y="-2135" />
<rect fill="#84A1AE" height="70" rx="15" width="70" x="865" y="-2235" />
<rect fill="#84A1AE" height="70" rx="15" width="70" x="965" y="-535" />
<rect fill="#84A1AE" height="70" rx="15" width="70" x="965" y="-1535" />
<rect fill="#84A1AE" height="70" rx="15" width="70" x="965" y="-1735" />
<rect fill="#84A1AE" height="70" rx="15" width="70" x="965" y="-2235" />
<rect fill="#84A1AE" height="70" rx="15" width="70" x="1065" y="-535" />
<rect fill="#84A1AE" height="70" rx="15" width="70" x="1065" y="-1335" />
<rect fill="#84A1AE" height="70" rx="15" width="70" x="1065" y="-1535" />
<rect fill="#84A1AE" height="70" rx="15" width="70" x="1065" y="-1635" />
<rect fill="#84A1AE" height="70" rx="15" width="70" x="1065" y="-1835" />
<rect fill="#84A1AE" height="70" rx="15" width="70" x="1065" y="-2135" />
<rect fill="#84A1AE" height="70" rx="15" width="70" x="1065" y="-2235" />
<rect fill="#84A1AE" height="70" rx="15" width="70" x="1165" y="-535" />
<rect fill="#84A1AE" height="70" rx="15" width="70" x="1165" y="-635" />
<rect fill="#84A1AE" height="70" rx="15" width="70" x="1165" y="-1135" />
<rect fill="#84A1AE" height="70" rx="15" width="70" x="1165" y="-1335" />
<rect fill="#84A1AE" height="70" rx="15" width="70" x="1165" y="-1535" />
<rect fill="#84A1AE" height="70" rx="15" width="70" x="1165" y="-1935" />
<rect fill="#84A1AE" height="70" rx="15" width="70" x="1165" y="-2235" />
<rect fill="#84A1AE" height="70" rx="15" width="70" x="1265" y="-535" />
<rect fill="#84A1AE" height="70" rx="15" width="70" x="1265" y="-1535" />
<rect fill="#84A1AE" height="70" rx="15" width="70" x="1265" y="-1735" />
<rect fill="#84A1AE" height="70" rx="15" width="70" x="1265" y="-2235" />
<rect fill="#84A1AE" height="70" rx="15" width="70" x="1365" y="-535" />
<rect fill="#84A1AE" height="70" rx="15" width="70" x="1365" y="-635" />
<rect fill="#84A1AE" height="70" rx="15" width="70" x="1365" y="-1535" />
<rect fill="#84A1AE" height="70" rx="15" width="70" x="1365" y="-1635" />
<rect fill="#84A1AE" height="70" rx="15" width="70" x="1365" y="-1935" />
<rect fill="#84A1AE" height="70" rx="15" width="70" x="1365" y="-2235" />
<rect fill="#84A1AE" height="70" rx="15" width="70" x="1465" y="-535" />
<rect fill="#84A1AE" height="70" rx="15" width="70" x="1465" y="-1535" />
<rect fill="#84A1AE" height="70" rx="15" width="70" x="1465" y="-1735" />
<rect fill="#84A1AE" height="70" rx="15" width="70" x="1465" y="-2035" />
<rect fill="#84A1AE" height="70" rx="15" width="70" x="1465" y="-2235" />
<rect fill="#84A1AE" height="70" rx="15" width="70" x="1565" y="-535" />
<rect fill="#84A1AE" height="70" rx="15" width="70" x="1565" y="-835" />
<rect fill="#84A1AE" height="70" rx="15" width="70" x="1565" y="-1735" />
<rect fill="#84A1AE" height="70" rx="15" width="70" x="1565" y="-2235" />
<rect fill="#84A1AE" height="70" rx="15" width="70" x="1665" y="-535" />
<rect fill="#84A1AE" height="70" rx="15" width="70" x="1665" y="-635" />
<rect fill="#84A1AE" height="70" rx="15" width="70" x="1665" y="-735" />
<rect fill="#84A1AE" height="70" rx="15" width="70" x="1665" y="-2135" />
<rect fill="#84A1AE" height="70" rx="15" width="70" x="1665" y="-2235" />
<rect fill="#84A1AE" height="70" rx="15" width="70" x="1765" y="-535" />
<rect fill="#84A1AE" height="70" rx="15" width="70" x="1765" y="-1535" />
<rect fill="#84A1AE" height="70" rx="15" width="70" x="1765" y="-1735" />
<rect fill="#84A1AE" height="70" rx="15" width="70" x="1765" y="-2235" />
<rect fill="#84A1AE" height="70" rx="15" width="70" x="1865" y="-535" />
<rect fill="#84A1AE" height="70" rx="15" width="70" x="1865" y="-735" />
<rect fill="#84A1AE" height="70" rx="15" width="70" x="1865" y="-1235" />
<rect fill="#84A1AE" height="70" rx="15" width="70" x="1865" y="-2235" />
<rect fill="#84A1AE" height="70" rx="15" width="70" x="1965" y="-535" />
<rect fill="#84A1AE" height="70" rx="15" width="70" x="1965" y="-1035" />
<rect fill="#84A1AE" height="70" rx="15" width="70" x="1965" y="-1335" />
<rect fill="#84A1AE" height="70" rx="15" width="70" x="1965" y="-1435" />
<rect fill="#84A1AE" height="70" rx="15" width="70" x="1965" y="-2235" />
<rect fill="#84A1AE" height="70" rx="15" width="70" x="2065" y="-535" />
<rect fill="#84A1AE" height="70" rx="15" width="70" x="2065" y="-1835" />
<rect fill="#84A1AE" height="70" rx="15" width="70" x="2065" y="-2035" />
<rect fill="#84A1AE" height="70" rx="15" width="70" x="2065" y="-2235" />
<rect fill="#84A1AE" height="70" rx="15" width="70" x="2165" y="-535" />
<rect fill="#84A1AE" height="70" rx="15" width="70" x="2165" y="-635" />
<rect fill="#84A1AE" height="70" rx="15" width="70" x="2165" y="-735" />
<rect fill="#84A1AE" height="70" rx="15" width="70" x="2165" y="-835" />
<rect fill="#84A1AE" height="70" rx="15" width="70" x="2165" y="-935" />
<rect fill="#84A1AE" height="70" rx="15" width="70" x="2165" y="-1035" />
<rect fill="#84A1AE" height="70" rx="15" width="70" x="2165" y="-1135" />
<rect fill="#84A1AE" height="70" rx="15" width="70" x="2165" y="-1235" />
<rect fill="#84A1AE" height="70" rx="15" width="70" x="2165" y="-1335" />
<rect fill="#84A1AE" height="70" rx="15" width="70" x="2165" y="-1435" />
<rect fill="#84A1AE" height="70" rx="15" width="70" x="2165" y="-1535" />
<rect fill="#84A1AE" height="70" rx="15" width="70" x="2165" y="-1635" />
<rect fill="#84A1AE" height="70" rx="15" width="70" x="2165" y="-1735" />
<rect fill="#84A1AE" height="70" rx="15" width="70" x="2165" y="-1835" />
<rect fill="#84A1AE" height="70" rx="15" width="70" x="2165" y="-1935" />
<rect fill="#84A1AE" height="70" rx="15" width="70" x="2165" y="-2035" />
<rect fill="#84A1AE" height="70" rx="15" width="70" x="2165" y="-2135" />
<rect fill="#84A1AE" height="70" rx="15" width="70" x="2165" y="-2235" />
<circle cx="1300" cy="-900" fill="#c1433c" r="35"> <animate attributeName="cy" dur="13.72s" keyTimes="0.0;0.02;0.06;0.08;0.76;0.78;0.8;0.82;0.96;0.98;1.0" repeatCount="indefinite" values="-900;-900;-900;-1000;-1000;-1100;-1100;-1000;-1000;-900;-900"/>
<animate attributeName="cx" dur="13.72s" keyTimes="0.0;0.02;0.04;0.06;0.08;0.1;0.12;0.14;0.16;0.18;0.2;0.22;0.24;0.26;0.28;0.3;0.32;0.34;0.36;0.38;0.4;0.42;0.5;0.52;0.54;0.56;0.58;0.6;0.62;0.64;0.66;0.68;0.7;0.72;0.74;0.76;0.82;0.84;1.0" repeatCount="indefinite" values="1300;1300;1400;1300;1300;1200;1100;1000;900;1000;900;1000;900;1000;900;1000;900;900;1000;900;1000;900;900;1000;1100;1200;1200;1300;1200;1300;1200;1300;1200;1300;1200;1300;1300;1200;1200"/>
<animate attributeName="visibility" dur="13.72s" keyTimes="0.0;0.02;0.96;0.98;1.0" repeatCount="indefinite" values="visible;visible;visible;hidden;hidden"/> </circle>
<circle cx="2000" cy="-1800" fill="#2e6f9e" r="35"> <animate attributeName="cy" dur="13.72s" keyTimes="0.0;0.02;0.12;0.14;0.16;0.22;0.24;0.26;0.4;0.42;0.44;0.46;0.58;0.6;0.64;0.66;0.68;0.7;0.72;0.74;0.76;0.78;0.82;0.84;0.86;0.88;0.9;0.92;0.94;0.96;1.0" repeatCount="indefinite" values="-1800;-1800;-1800;-1700;-1600;-1600;-1500;-1400;-1400;-1300;-1300;-1200;-1200;-1100;-1100;-1200;-1200;-1300;-1200;-1200;-1100;-1000;-1000;-900;-800;-800;-700;-800;-800;-900;-900"/>
<animate attributeName="cx" dur="13.72s" keyTimes="0.0;0.02;0.04;0.06;0.08;0.1;0.12;0.16;0.18;0.2;0.22;0.26;0.28;0.3;0.32;0.34;0.42;0.44;0.46;0.48;0.54;0.56;0.58;0.72;0.74;0.78;0.8;0.82;0.86;0.88;0.92;0.94;1.0" repeatCount="indefinite" values="2000;2000;1900;2000;1900;1800;1700;1700;1800;1700;1600;1600;1500;1400;1300;1400;1400;1300;1300;1200;1200;1100;1000;1000;1100;1100;1000;1100;1100;1200;1200;1300;1300"/>
<animate attributeName="visibility" dur="13.72s" keyTimes="0.0;0.02;1.0" repeatCount="indefinite" values="visible;visible;visible"/> </circle>
<circle cx="1600" cy="-2000" fill="#6e81af" r="35"> <animate attributeName="cy" dur="13.72s" keyTimes="0.0;0.02;0.04;0.06;0.08;0.1;0.22;0.24;0.26;0.4;0.42;0.46;0.48;0.52;0.54;0.56;0.58;0.6;0.62;0.64;0.66;0.68;0.72;0.74;0.76;0.92;0.94;0.96;1.0" repeatCount="indefinite" values="-2000;-2000;-2000;-1900;-1900;-1800;-1800;-1900;-2000;-2000;-2100;-2100;-2000;-2000;-1900;-1800;-1900;-1800;-1800;-1700;-1600;-1500;-1500;-1400;-1300;-1300;-1200;-1100;-1100"/>
<animate attributeName="cx" dur="13.72s" keyTimes="0.0;0.02;0.1;0.12;0.14;0.16;0.18;0.2;0.26;0.28;0.3;0.32;0.34;0.36;0.38;0.4;0.6;0.62;0.7;0.72;0.76;0.78;0.82;0.84;0.86;0.88;0.9;0.92;0.96;0.98;1.0" repeatCount="indefinite" values="1600;1600;1600;1500;1600;1500;1400;1300;1300;1400;1400;1300;1200;1200;1100;1000;1000;900;900;800;800;900;900;1000;1000;900;900;1000;1000;1100;1100"/>
<animate attributeName="visibility" dur="13.72s" keyTimes="0.0;0.02;1.0" repeatCount="indefinite" values="visible;visible;visible"/> </circle>
<circle cx="1900" cy="-1300" fill="none" r="35" stroke="#c1433c" stroke-width="10"> <animate attributeName="cy" dur="13.72s" keyTimes="0.0;0.02;1.0" repeatCount="indefinite" values="-1300;-1300;-1300"/>
<animate attributeName="cx" dur="13.72s" keyTimes="0.0;0.02;1.0" repeatCount="indefinite" values="1900;1900;1900"/>
<animate attributeName="visibility" dur="13.72s" keyTimes="0.0;0.02;0.96;0.98;1.0" repeatCount="indefinite" values="visible;visible;visible;hidden;hidden"/> </circle>
</svg>