<?xml version="1.0" encoding="UTF-8"?>
        <svg xmlns="http://www.w3.org/2000/svg" xmlns:xlink="http://www.w3.org/1999/xlink"
             width="270" height="270" viewBox="0 -2700 2700 2700">

<defs>

</defs>

<rect fill="#84A1AE" height="70" rx="15" width="70" x="465" y="-535" />
<rect fill="#84A1AE" height="70" rx="15" width="70" x="465" y="-635" />
<rect fill="#84A1AE" height="70" rx="15" width="70" x="465" y="-735" />
<rect fill="#84A1AE" height="70" rx="15" width="70" x="465" y="-835" />
<rect fill="#84A1AE" height="70" rx="15" width="70" x="465" y="-935" />
<rect fill="#84A1AE" height="70" rx="15" width="70" x="465" y="-1035" />
<rect fill="#84A1AE" height="70" rx="15" width="70" x="465" y="-1135" />
<rect fill="#84A1AE" height="70" rx="15" width="70" x="465" y="-1235" />
<rect fill="#84A1AE" height="70" rx="15" width="70" x="465" y="-1335" />
<rect fill="#84A1AE" height="70" rx="15" width="70" x="465" y="-1435" />
<rect fill="#84A1AE" height="70" rx="15" width="70" x="465" y="-1535" />
<rect fill="#84A1AE" height="70" rx="15" width="70" x="465" y="-1635" />
<rect fill="#84A1AE" height="70" rx="15" width="70" x="465" y="-1735" />
<rect fill="#84A1AE" height="70" rx="15" width="70" x="465" y="-1835" />
<rect fill="#84A1AE" height="70" rx="15" width="70" x="465" y="-1935" />
<rect fill="#84A1AE" height="70" rx="15" width="70" x="465" y="-2035" />
<rect fill="#84A1AE" height="70" rx="15" width="70" x="465" y="-2135" />
<rect fill="#84A1AE" height="70" rx="15" width="70" x="465" y="-2235" />
<rect fill="#84A1AE" height="70" rx="15" width="70" x="565" y="-535" />
<rect fill="#84A1AE" height="70" rx="15" width="70" x="565" y="-935" />
<rect fill="#84A1AE" height="70" rx="15" width="70" x="565" y="-1235" />
<rect fill="#84A1AE" height="70" rx="15" width="70" x="565" y="-1435" />
<rect fill="#84A1AE" height="70" rx="15" width="70" x="565" y="-2235" />
<rect fill="#84A1AE" height="70" rx="15" width="70" x="665" y="-535" />
<rect fill="#84A1AE" height="70" rx="15" width="70" x="665" y="-1735" />
<rect fill="#84A1AE" height="70" rx="15" width="70" x="665" y="-1935" />
<rect fill="#84A1AE" height="70" rx="15" width="70" x="665" y="-2235" />
<rect fill="#84A1AE" height="70" rx="15" width="70" x="765" y="-535" />
<rect fill="#84A1AE" height="70" rx="15" width="70" x="765" y="-635" />
<rect fill="#84A1AE" height="70" rx="15" width="70" x="765" y="-1235" />
<rect fill="#84A1AE" height="70" rx="15" width="70" x="765" y="-1435" />
<rect fill="#84A1AE" height="70" rx="15" width="70" x="765" y="-2135" />
<rect fill="#84A1AE" height="70" rx="15" width="70" x="765" y="-2235" />
<rect fill="#84A1AE" height="70" rx="15" width="70" x="865" y="-535" />
<rect fill="#84A1AE" height="70" rx="15" width="70" x="865" y="-635" />
<rect fill="#84A1AE" height="70" rx="15" width="70" x="865" y="-735" />
<rect fill="#84A1AE" height="70" rx="15" width="70" x="865" y="-1035" />
<rect fill="#84A1AE" height="70" rx="15" width="70" x="865" y="-1135" />
<rect fill="#84A1AE" height="70" rx="15" width="70" x="865" y="-2135" />
<rect fill="#84A1AE" height="70" rx="15" width="70" x="865" y="-2235" />
<rect fill="#84A1AE" height="70" rx="15" width="70" x="965" y="-535" />
<rect fill="#84A1AE" height="70" rx="15" width="70" x="965" y="-635" />
<rect fill="#84A1AE" height="70" rx="15" width="70" x="965" y="-1135" />
<rect fill="#84A1AE" height="70" rx="15" width="70" x="965" y="-1935" />
<rect fill="#84A1AE" height="70" rx="15" width="70" x="965" y="-2235" />
<rect fill="#84A1AE" height="70" rx="15" width="70" x="1065" y="-535" />
<rect fill="#84A1AE" height="70" rx="15" width="70" x="1065" y="-2235" />
<rect fill="#84A1AE" height="70" rx="15" width="70" x="1165" y="-535" />
<rect fill="#84A1AE" height="70" rx="15" width="70" x="1165" y="-1935" />
<rect fill="#84A1AE" height="70" rx="15" width="70" x="1165" y="-2235" />
<rect fill="#84A1AE" height="70" rx="15" width="70" x="1265" y="-535" />
<rect fill="#84A1AE" height="70" rx="15" width="70" x="1265" y="-835" />
<rect fill="#84A1AE" height="70" rx="15" width="70" x="1265" y="-1335" />
<rect fill="#84A1AE" height="70" rx="15" width="70" x="1265" y="-1835" />
<rect fill="#84A1AE" height="70" rx="15" width="70" x="1265" y="-2235" />
<rect fill="#84A1AE" height="70" rx="15" width="70" x="1365" y="-535" />
<rect fill="#84A1AE" height="70" rx="15" width="70" x="1365" y="-1135" />
<rect fill="#84A1AE" height="70" rx="15" width="70" x="1365" y="-1535" />
<rect fill="#84A1AE" height="70" rx="15" width="70" x="1365" y="-1935" />
<rect fill="#84A1AE" height="70" rx="15" width="70" x="1365" y="-2235" />
<rect fill="#84A1AE" height="70" rx="15" width="70" x="1465" y="-535" />
<rect fill="#84A1AE" height="70" rx="15" width="70" x="1465" y="-1035" />
<rect fill="#84A1AE" height="70" rx="15" width="70" x="1465" y="-1835" />
<rect fill="#84A1AE" height="70" rx="15" width="70" x="1465" y="-2135" />
<rect fill="#84A1AE" height="70" rx="15" width="70" x="1465" y="-2235" />
<rect fill="#84A1AE" height="70" rx="15" width="70" x="1565" y="-535" />
<rect fill="#84A1AE" height="70" rx="15" width="70" x="1565" y="-635" />
<rect fill="#84A1AE" height="70" rx="15" width="70" x="1565" y="-1035" />
<rect fill="#84A1AE" height="70" rx="15" width="70" x="1565" y="-1135" />
<rect fill="#84A1AE" height="70" rx="15" width="70" x="1565" y="-1235" />
<rect fill="#84A1AE" height="70" rx="15" width="70" x="1565" y="-1835" />
<rect fill="#84A1AE" height="70" rx="15" width="70" x="1565" y="-2235" />
<rect fill="#84A1AE" height="70" rx="15" width="70" x="1665" y="-535" />
<rect fill="#84A1AE" height="70" rx="15" width="70" x="1665" y="-635" />
<rect fill="#84A1AE" height="70" rx="15" width="70" x="1665" y="-735" />
<rect fill="#84A1AE" height="70" rx="15" width="70" x="1665" y="-2235" />
<rect fill="#84A1AE" height="70" rx="15" width="70" x="1765" y="-535" />
<rect fill="#84A1AE" height="70" rx="15" width="70" x="1765" y="-2035" />
<rect fill="#84A1AE" height="70" rx="15" width="70" x="1765" y="-2235" />
<rect fill="#84A1AE" height="70" rx="15" width="70" x="1865" y="-535" />
<rect fill="#84A1AE" height="70" rx="15" width="70" x="1865" y="-1935" />
<rect fill="#84A1AE" height="70" rx="15" width="70" x="1865" y="-2235" />
<rect fill="#84A1AE" height="70" rx="15" width="70" x="1965" y="-535" />
<rect fill="#84A1AE" height="70" rx="15" width="70" x="1965" y="-635" />
<rect fill="#84A1AE" height="70" rx="15" width="70" x="1965" y="-935" />
<rect fill="#84A1AE" height="70" rx="15" width="70" x="1965" y="-1435" />
<rect fill="#84A1AE" height="70" rx="15" width="70" x="1965" y="-1735" />
<rect fill="#84A1AE" height="70" rx="15" width="70" x="1965" y="-2235" />
<rect fill="#84A1AE" height="70" rx="15" width="70" x="2065" y="-535" />
<rect fill="#84A1AE" height="70" rx="15" width="70" x="2065" y="-1035" />
<rect fill="#84A1AE" height="70" rx="15" width="70" x="2065" y="-1835" />
<rect fill="#84A1AE" height="70" rx="15" width="70" x="2065" y="-1935" />
<rect fill="#84A1AE" height="70" rx="15" width="70" x="2065" y="-2235" />
<rect fill="#84A1AE" height="70" rx="15" width="70" x="2165" y="-535" />
<rect fill="#84A1AE" height="70" rx="15" width="70" x="2165" y="-635" />
<rect fill="#84A1AE" height="70" rx="15" width="70" x="2165" y="-735" />
<rect fill="#84A1AE" height="70" rx="15" width="70" x="2165" y="-835" />
<rect fill="#84A1AE" height="70" rx="15" width="70" x="2165" y="-935" />
<rect fill="#84A1AE" height="70" rx="15" width="70" x="2165" y="-1035" />
<rect fill="#84A1AE" height="70" rx="15" width="70" x="2165" y="-1135" />
<rect fill="#84A1AE" height="70" rx="15" width="70" x="2165" y="-1235" />
<rect fill="#84A1AE" height="70" rx="15" width="70" x="2165" y="-1335" />
<rect fill="#84A1AE" height="70" rx="15" width="70" x="2165" y="-1435" />
<rect fill="#84A1AE" height="70" rx="15" width="70" x="2165" y="-1535" />
<rect fill="#84A1AE" height="70" rx="15" width="70" x="2165" y="-1635" />
<rect fill="#84A1AE" height="70" rx="15" width="70" x="2165" y="-1735" />
<rect fill="#84A1AE" height="70" rx="15" width="70" x="2165" y="-1835" />
<rect fill="#84A1AE" height="70" rx="15" width="70" x="2165" y="-1935" />
<rect fill="#84A1AE" height="70" rx="15" width="70" x="2165" y="-2035" />
<rect fill="#84A1AE" height="70" rx="15" width="70" x="2165" y="-2135" />
<rect fill="#84A1AE" height="70" rx="15" width="70" x="2165" y="-2235" />
<circle cx="700" cy="-2100" fill="#c1433c" r="35"> <animate attributeName="cy" dur="2.24s" keyTimes="0.0;0.1111111111;0.2222222222;0.3333333333;0.4444444444;0.5555555556;0.6666666667;0.7777777778;0.8888888889;1.0" repeatCount="indefinite" values="-2100;-2100;-2000;-2000;-1900;-1800;-1800;-1700;-1600;-1600"/>
<animate attributeName="cx" dur="2.24s" keyTimes="0.0;0.1111111111;0.2222222222;0.3333333333;0.5555555556;0.6666666667;1.0" repeatCount="indefinite" values="700;700;700;800;800;900;900"/>
<animate attributeName="visibility" dur="2.24s" keyTimes="0.0;0.1111111111;0.7777777778;0.8888888889;1.0" repeatCount="indefinite" values="visible;visible;visible;hidden;hidden"/> </circle>
<circle cx="1100" cy="-1400" fill="#2e6f9e" r="35"> <animate attributeName="cy" dur="2.24s" keyTimes="0.0;0.1111111111;0.2222222222;0.3333333333;0.4444444444;0.5555555556;0.6666666667;0.7777777778;1.0" repeatCount="indefinite" values="-1400;-1400;-1500;-1600;-1600;-1700;-1700;-1600;-1600"/>
<animate attributeName="cx" dur="2.24s" keyTimes="0.0;0.1111111111;0.3333333333;0.4444444444;1.0" repeatCount="indefinite" values="1100;1100;1100;1000;1000"/>
<animate attributeName="visibility" dur="2.24s" keyTimes="0.0;0.1111111111;1.0" repeatCount="indefinite" values="visible;visible;visible"/> </circle>
<circle cx="2000" cy="-1800" fill="#6e81af" r="35"> <animate attributeName="cy" dur="2.24s" keyTimes="0.0;0.1111111111;0.7777777778;0.8888888889;1.0" repeatCount="indefinite" values="-1800;-1800;-1800;-1900;-1900"/>
<animate attributeName="cx" dur="2.24s" keyTimes="0.0;0.1111111111;0.2222222222;0.3333333333;0.4444444444;0.6666666667;0.7777777778;1.0" repeatCount="indefinite" values="2000;2000;1900;2000;1900;1900;1800;1800"/>
<animate attributeName="visibility" dur="2.24s" keyTimes="0.0;0.1111111111;1.0" repeatCount="indefinite" values="visible;visible;visible"/> </circle>
<circle cx="1400" cy="-800" fill="none" r="35" stroke="#c1433c" stroke-width="10"> <animate attributeName="cy" dur="2.24s" keyTimes="0.0;0.1111111111;1.0" repeatCount="indefinite" values="-800;-800;-800"/>
<animate attributeName="cx" dur="2.24s" keyTimes="0.0;0.1111111111;1.0" repeatCount="indefinite" values="1400;1400;1400"/>
<animate attributeName="visibility" dur="2.24s" keyTimes="0.0;0.1111111111;0.7777777778;0.8888888889;1.0" repeatCount="indefinite" values="visible;visible;visible;hidden;hidden"/> </circle>
</svg>