<?xml version="1.0" encoding="UTF-8"?>
        <svg xmlns="http://www.w3.org/2000/svg" xmlns:xlink="http://www.w3.org/1999/xlink"
             width="270" height="270" viewBox="0 -2700 2700 2700">

<defs>

</defs>

<rect fill="#84A1AE" height="70" rx="15" width="70" x="465" y="-535" />
<rect fill="#84A1AE" height="70" rx="15" width="70" x="465" y="-635" />
<rect fill="#84A1AE" height="70" rx="15" width="70" x="465" y="-735" />
<rect fill="#84A1AE" height="70" rx="15" width="70" x="465" y="-835" />
<rect fill="#84A1AE" height="70" rx="15" width="70" x="465" y="-935" />
<rect fill="#84A1AE" height="70" rx="15" width="70" x="465" y="-1035" />
<rect fill="#84A1AE" height="70" rx="15" width="70" x="465" y="-1135" />
<rect fill="#84A1AE" height="70" rx="15" width="70" x="465" y="-1235" />
<rect fill="#84A1AE" height="70" rx="15" width="70" x="465" y="-1335" />
<rect fill="#84A1AE" height="70" rx="15" width="70" x="465" y="-1435" />
<rect fill="#84A1AE" height="70" rx="15" width="70" x="465" y="-1535" />
<rect fill="#84A1AE" height="70" rx="15" width="70" x="465" y="-1635" />
<rect fill="#84A1AE" height="70" rx="15" width="70" x="465" y="-1735" />
<rect fill="#84A1AE" height="70" rx="15" width="70" x="465" y="-1835" />
<rect fill="#84A1AE" height="70" rx="15" width="70" x="465" y="-1935" />
<rect fill="#84A1AE" height="70" rx="15" width="70" x="465" y="-2035" />
<rect fill="#84A1AE" height="70" rx="15" width="70" x="465" y="-2135" />
<rect fill="#84A1AE" height="70" rx="15" width="70" x="465" y="-2235" />
<rect fill="#84A1AE" height="70" rx="15" width="70" x="565" y="-535" />
<rect fill="#84A1AE" height="70" rx="15" width="70" x="565" y="-1235" />
<rect fill="#84A1AE" height="70" rx="15" width="70" x="565" y="-2235" />
<rect fill="#84A1AE" height="70" rx="15" width="70" x="665" y="-535" />
<rect fill="#84A1AE" height="70" rx="15" width="70" x="665" y="-1035" />
<rect fill="#84A1AE" height="70" rx="15" width="70" x="665" y="-1435" />
<rect fill="#84A1AE" height="70" rx="15" width="70" x="665" y="-1635" />
<rect fill="#84A1AE" height="70" rx="15" width="70" x="665" y="-2135" />
<rect fill="#84A1AE" height="70" rx="15" width="70" x="665" y="-2235" />
<rect fill="#84A1AE" height="70" rx="15" width="70" x="765" y="-535" />
<rect fill="#84A1AE" height="70" rx="15" width="70" x="765" y="-635" />
<rect fill="#84A1AE" height="70" rx="15" width="70" x="765" y="-1535" />
<rect fill="#84A1AE" height="70" rx="15" width="70" x="765" y="-1735" />
<rect fill="#84A1AE" height="70" rx="15" width="70" x="765" y="-1835" />
<rect fill="#84A1AE" height="70" rx="15" width="70" x="765" y="-1935" />
<rect fill="#84A1AE" height="70" rx="15" width="70" x="765" y="-2135" />
<rect fill="#84A1AE" height="70" rx="15" width="70" x="765" y="-2235" />
<rect fill="#84A1AE" height="70" rx="15" width="70" x="865" y="-535" />
<rect fill="#84A1AE" height="70" rx="15" width="70" x="865" y="-735" />
<rect fill="#84A1AE" height="70" rx="15" width="70" x="865" y="-1835" />
<rect fill="#84A1AE" height="70" rx="15" width="70" x="865" y="-2035" />
<rect fill="#84A1AE" height="70" rx="15" width="70" x="865" y="-2235" />
<rect fill="#84A1AE" height="70" rx="15" width="70" x="965" y="-535" />
<rect fill="#84A1AE" height="70" rx="15" width="70" x="965" y="-835" />
<rect fill="#84A1AE" height="70" rx="15" width="70" x="965" y="-1135" />
<rect fill="#84A1AE" height="70" rx="15" width="70" x="965" y="-1835" />
<rect fill="#84A1AE" height="70" rx="15" width="70" x="965" y="-2235" />
<rect fill="#84A1AE" height="70" rx="15" width="70" x="1065" y="-535" />
<rect fill="#84A1AE" height="70" rx="15" width="70" x="1065" y="-735" />
<rect fill="#84A1AE" height="70" rx="15" width="70" x="1065" y="-835" />
<rect fill="#84A1AE" height="70" rx="15" width="70" x="1065" y="-935" />
<rect fill="#84A1AE" height="70" rx="15" width="70" x="1065" y="-1135" />
<rect fill="#84A1AE" height="70" rx="15" width="70" x="1065" y="-1835" />
<rect fill="#84A1AE" height="70" rx="15" width="70" x="1065" y="-2135" />
<rect fill="#84A1AE" height="70" rx="15" width="70" x="1065" y="-2235" />
<rect fill="#84A1AE" height="70" rx="15" width="70" x="1165" y="-535" />
<rect fill="#84A1AE" height="70" rx="15" width="70" x="1165" y="-1335" />
<rect fill="#84A1AE" height="70" rx="15" width="70" x="1165" y="-1435" />
<rect fill="#84A1AE" height="70" rx="15" width="70" x="1165" y="-2235" />
<rect fill="#84A1AE" height="70" rx="15" width="70" x="1265" y="-535" />
<rect fill="#84A1AE" height="70" rx="15" width="70" x="1265" y="-935" />
<rect fill="#84A1AE" height="70" rx="15" width="70" x="1265" y="-1035" />
<rect fill="#84A1AE" height="70" rx="15" width="70" x="1265" y="-1135" />
<rect fill="#84A1AE" height="70" rx="15" width="70" x="1265" y="-1535" />
<rect fill="#84A1AE" height="70" rx="15" width="70" x="1265" y="-2135" />
<rect fill="#84A1AE" height="70" rx="15" width="70" x="1265" y="-2235" />
<rect fill="#84A1AE" height="70" rx="15" width="70" x="1365" y="-535" />
<rect fill="#84A1AE" height="70" rx="15" width="70" x="1365" y="-1235" />
<rect fill="#84A1AE" height="70" rx="15" width="70" x="1365" y="-2035" />
<rect fill="#84A1AE" height="70" rx="15" width="70" x="1365" y="-2135" />
<rect fill="#84A1AE" height="70" rx="15" width="70" x="1365" y="-2235" />
<rect fill="#84A1AE" height="70" rx="15" width="70" x="1465" y="-535" />
<rect fill="#84A1AE" height="70" rx="15" width="70" x="1465" y="-1635" />
<rect fill="#84A1AE" height="70" rx="15" width="70" x="1465" y="-2235" />
<rect fill="#84A1AE" height="70" rx="15" width="70" x="1565" y="-535" />
<rect fill="#84A1AE" height="70" rx="15" width="70" x="1565" y="-735" />
<rect fill="#84A1AE" height="70" rx="15" width="70" x="1565" y="-835" />
<rect fill="#84A1AE" height="70" rx="15" width="70" x="1565" y="-1235" />
<rect fill="#84A1AE" height="70" rx="15" width="70" x="1565" y="-1635" />
<rect fill="#84A1AE" height="70" rx="15" width="70" x="1565" y="-1935" />
<rect fill="#84A1AE" height="70" rx="15" width="70" x="1565" y="-2235" />
<rect fill="#84A1AE" height="70" rx="15" width="70" x="1665" y="-535" />
<rect fill="#84A1AE" height="70" rx="15" width="70" x="1665" y="-1035" />
<rect fill="#84A1AE" height="70" rx="15" width="70" x="1665" y="-1235" />
<rect fill="#84A1AE" height="70" rx="15" width="70" x="1665" y="-2235" />
<rect fill="#84A1AE" height="70" rx="15" width="70" x="1765" y="-535" />
<rect fill="#84A1AE" height="70" rx="15" width="70" x="1765" y="-735" />
<rect fill="#84A1AE" height="70" rx="15" width="70" x="1765" y="-835" />
<rect fill="#84A1AE" height="70" rx="15" width="70" x="1765" y="-935" />
<rect fill="#84A1AE" height="70" rx="15" width="70" x="1765" y="-1635" />
<rect fill="#84A1AE" height="70" rx="15" width="70" x="1765" y="-1835" />
<rect fill="#84A1AE" height="70" rx="15" width="70" x="1765" y="-1935" />
<rect fill="#84A1AE" height="70" rx="15" width="70" x="1765" y="-2135" />
<rect fill="#84A1AE" height="70" rx="15" width="70" x="1765" y="-2235" />
<rect fill="#84A1AE" height="70" rx="15" width="70" x="1865" y="-535" />
<rect fill="#84A1AE" height="70" rx="15" width="70" x="1865" y="-935" />
<rect fill="#84A1AE" height="70" rx="15" width="70" x="1865" y="-1435" />
<rect fill="#84A1AE" height="70" rx="15" width="70" x="1865" y="-2235" />
<rect fill="#84A1AE" height="70" rx="15" width="70" x="1965" y="-535" />
<rect fill="#84A1AE" height="70" rx="15" width="70" x="1965" y="-635" />
<rect fill="#84A1AE" height="70" rx="15" width="70" x="1965" y="-1835" />
<rect fill="#84A1AE" height="70" rx="15" width="70" x="1965" y="-2035" />
<rect fill="#84A1AE" height="70" rx="15" width="70" x="1965" y="-2235" />
<rect fill="#84A1AE" height="70" rx="15" width="70" x="2065" y="-535" />
<rect fill="#84A1AE" height="70" rx="15" width="70" x="2065" y="-935" />
<rect fill="#84A1AE" height="70" rx="15" width="70" x="2065" y="-1135" />
<rect fill="#84A1AE" height="70" rx="15" width="70" x="2065" y="-1235" />
<rect fill="#84A1AE" height="70" rx="15" width="70" x="2065" y="-1635" />
<rect fill="#84A1AE" height="70" rx="15" width="70" x="2065" y="-2235" />
<rect fill="#84A1AE" height="70" rx="15" width="70" x="2165" y="-535" />
<rect fill="#84A1AE" height="70" rx="15" width="70" x="2165" y="-635" />
<rect fill="#84A1AE" height="70" rx="15" width="70" x="2165" y="-735" />
<rect fill="#84A1AE" height="70" rx="15" width="70" x="2165" y="-835" />
<rect fill="#84A1AE" height="70" rx="15" width="70" x="2165" y="-935" />
<rect fill="#84A1AE" height="70" rx="15" width="70" x="2165" y="-1035" />
<rect fill="#84A1AE" height="70" rx="15" width="70" x="2165" y="-1135" />
<rect fill="#84A1AE" height="70" rx="15" width="70" x="2165" y="-1235" />
<rect fill="#84A1AE" height="70" rx="15" width="70" x="2165" y="-1335" />
<rect fill="#84A1AE" height="70" rx="15" width="70" x="2165" y="-1435" />
<rect fill="#84A1AE" height="70" rx="15" width="70" x="2165" y="-1535" />
<rect fill="#84A1AE" height="70" rx="15" width="70" x="2165" y="-1635" />
<rect fill="#84A1AE" height="70" rx="15" width="70" x="2165" y="-1735" />
<rect fill="#84A1AE" height="70" rx="15" width="70" x="2165" y="-1835" />
<rect fill="#84A1AE" height="70" rx="15" width="70" x="2165" y="-1935" />
<rect fill="#84A1AE" height="70" rx="15" width="70" x="2165" y="-2035" />
<rect fill="#84A1AE" height="70" rx="15" width="70" x="2165" y="-2135" />
<rect fill="#84A1AE" height="70" rx="15" width="70" x="2165" y="-2235" />
<circle cx="700" cy="-1500" fill="#c1433c" r="35"> <animate attributeName="cy" dur="7.5600000000000005s" keyTimes="0.0;0.0357142857;0.25;0.2857142857;0.3214285714;0.3571428571;0.3928571429;0.4285714286;0.4642857143;0.5;0.5357142857;0.5714285714;0.6071428571;0.6428571429;0.6785714286;0.8214285714;0.8571428571;0.8928571429;0.9285714286;0.9642857143;1.0" repeatCount="indefinite" values="-1500;-1500;-1500;-1600;-1700;-1700;-1800;-1800;-1700;-1700;-1800;-1900;-1800;-1900;-2000;-2000;-2100;-2000;-1900;-1800;-1800"/>
<animate attributeName="cx" dur="7.5600000000000005s" keyTimes="0.0;0.0357142857;0.2142857143;0.25;0.3214285714;0.3571428571;0.3928571429;0.4285714286;0.4642857143;0.5;0.6785714286;0.7142857143;0.75;0.7857142857;0.8214285714;1.0" repeatCount="indefinite" values="700;700;700;600;600;700;700;600;600;700;700;800;800;700;600;600"/>
<animate attributeName="visibility" dur="7.5600000000000005s" keyTimes="0.0;0.0357142857;0.9285714286;0.9642857143;1.0" repeatCount="indefinite" values="visible;visible;visible;hidden;hidden"/> </circle>
<circle cx="1900" cy="-1700" fill="#2e6f9e" r="35"> <animate attributeName="cy" dur="7.5600000000000005s" keyTimes="0.0;0.0357142857;0.2857142857;0.3214285714;0.3571428571;0.3928571429;0.4285714286;0.4642857143;0.5;0.5357142857;0.5714285714;0.6071428571;0.8571428571;0.8928571429;0.9285714286;0.9642857143;1.0" repeatCount="indefinite" values="-1700;-1700;-1700;-1600;-1500;-1600;-1600;-1700;-1700;-1600;-1600;-1700;-1700;-1600;-1700;-1600;-1600"/>
<animate attributeName="cx" dur="7.5600000000000005s" keyTimes="0.0;0.0357142857;0.0714285714;0.1071428571;0.1428571429;0.1785714286;0.2142857143;0.25;0.2857142857;0.3928571429;0.4285714286;0.5357142857;0.5714285714;0.6071428571;0.6428571429;0.7142857143;0.75;0.7857142857;0.8214285714;0.8571428571;1.0" repeatCount="indefinite" values="1900;1900;1800;1900;1800;1700;1600;1500;1400;1400;1300;1300;1200;1200;1100;1100;1200;1100;1000;900;900"/>
<animate attributeName="visibility" dur="7.5600000000000005s" keyTimes="0.0;0.0357142857;1.0" repeatCount="indefinite" values="visible;visible;visible"/> </circle>
<circle cx="1500" cy="-1300" fill="#6e81af" r="35"> <animate attributeName="cy" dur="7.5600000000000005s" keyTimes="0.0;0.0357142857;0.0714285714;0.1071428571;0.1428571429;0.1785714286;0.3214285714;0.3571428571;0.4285714286;0.4642857143;0.5357142857;0.5714285714;0.6071428571;0.6428571429;0.7142857143;0.75;0.8214285714;0.8571428571;0.8928571429;0.9285714286;0.9642857143;1.0" repeatCount="indefinite" values="-1300;-1300;-1400;-1400;-1500;-1600;-1600;-1500;-1500;-1400;-1400;-1300;-1300;-1200;-1200;-1300;-1300;-1400;-1500;-1600;-1700;-1700"/>
<animate attributeName="cx" dur="7.5600000000000005s" keyTimes="0.0;0.0357142857;0.0714285714;0.1071428571;0.1785714286;0.2142857143;0.25;0.2857142857;0.4642857143;0.5;0.5357142857;0.5714285714;0.6071428571;0.6428571429;0.6785714286;0.7142857143;0.75;0.7857142857;0.8214285714;1.0" repeatCount="indefinite" values="1500;1500;1500;1400;1400;1300;1200;1100;1100;1000;900;900;800;800;900;800;800;700;600;600"/>
<animate attributeName="visibility" dur="7.5600000000000005s" keyTimes="0.0;0.0357142857;1.0" repeatCount="indefinite" values="visible;visible;visible"/> </circle>
<circle cx="1900" cy="-1500" fill="none" r="35" stroke="#c1433c" stroke-width="10"> <animate attributeName="cy" dur="7.5600000000000005s" keyTimes="0.0;0.0357142857;1.0" repeatCount="indefinite" values="-1500;-1500;-1500"/>
<animate attributeName="cx" dur="7.5600000000000005s" keyTimes="0.0;0.0357142857;1.0" repeatCount="indefinite" values="1900;1900;1900"/>
<animate attributeName="visibility" dur="7.5600000000000005s" keyTimes="0.0;0.0357142857;0.9285714286;0.9642857143;1.0" repeatCount="indefinite" values="visible;visible;visible;hidden;hidden"/> </circle>
</svg>