<?xml version="1.0" encoding="UTF-8"?>
        <svg xmlns="http://www.w3.org/2000/svg" xmlns:xlink="http://www.w3.org/1999/xlink"
             width="270" height="270" viewBox="0 -2700 2700 2700">

<defs>

</defs>

<rect fill="#84A1AE" height="70" rx="15" width="70" x="465" y="-535" />
<rect fill="#84A1AE" height="70" rx="15" width="70" x="465" y="-635" />
<rect fill="#84A1AE" height="70" rx="15" width="70" x="465" y="-735" />
<rect fill="#84A1AE" height="70" rx="15" width="70" x="465" y="-835" />
<rect fill="#84A1AE" height="70" rx="15" width="70" x="465" y="-935" />
<rect fill="#84A1AE" height="70" rx="15" width="70" x="465" y="-1035" />
<rect fill="#84A1AE" height="70" rx="15" width="70" x="465" y="-1135" />
<rect fill="#84A1AE" height="70" rx="15" width="70" x="465" y="-1235" />
<rect fill="#84A1AE" height="70" rx="15" width="70" x="465" y="-1335" />
<rect fill="#84A1AE" height="70" rx="15" width="70" x="465" y="-1435" />
<rect fill="#84A1AE" height="70" rx="15" width="70" x="465" y="-1535" />
<rect fill="#84A1AE" height="70" rx="15" width="70" x="465" y="-1635" />
<rect fill="#84A1AE" height="70" rx="15" width="70" x="465" y="-1735" />
<rect fill="#84A1AE" height="70" rx="15" width="70" x="465" y="-1835" />
<rect fill="#84A1AE" height="70" rx="15" width="70" x="465" y="-1935" />
<rect fill="#84A1AE" height="70" rx="15" width="70" x="465" y="-2035" />
<rect fill="#84A1AE" height="70" rx="15" width="70" x="465" y="-2135" />
<rect fill="#84A1AE" height="70" rx="15" width="70" x="465" y="-2235" />
<rect fill="#84A1AE" height="70" rx="15" width="70" x="565" y="-535" />
<rect fill="#84A1AE" height="70" rx="15" width="70" x="565" y="-835" />
<rect fill="#84A1AE" height="70" rx="15" width="70" x="565" y="-1535" />
<rect fill="#84A1AE" height="70" rx="15" width="70" x="565" y="-1835" />
<rect fill="#84A1AE" height="70" rx="15" width="70" x="565" y="-1935" />
<rect fill="#84A1AE" height="70" rx="15" width="70" x="565" y="-2235" />
<rect fill="#84A1AE" height="70" rx="15" width="70" x="665" y="-535" />
<rect fill="#84A1AE" height="70" rx="15" width="70" x="665" y="-935" />
<rect fill="#84A1AE" height="70" rx="15" width="70" x="665" y="-1135" />
<rect fill="#84A1AE" height="70" rx="15" width="70" x="665" y="-1535" />
<rect fill="#84A1AE" height="70" rx="15" width="70" x="665" y="-2235" />
<rect fill="#84A1AE" height="70" rx="15" width="70" x="765" y="-535" />
<rect fill="#84A1AE" height="70" rx="15" width="70" x="765" y="-1435" />
<rect fill="#84A1AE" height="70" rx="15" width="70" x="765" y="-1635" />
<rect fill="#84A1AE" height="70" rx="15" width="70" x="765" y="-1935" />
<rect fill="#84A1AE" height="70" rx="15" width="70" x="765" y="-2235" />
<rect fill="#84A1AE" height="70" rx="15" width="70" x="865" y="-535" />
<rect fill="#84A1AE" height="70" rx="15" width="70" x="865" y="-1935" />
<rect fill="#84A1AE" height="70" rx="15" width="70" x="865" y="-2035" />
<rect fill="#84A1AE" height="70" rx="15" width="70" x="865" y="-2235" />
<rect fill="#84A1AE" height="70" rx="15" width="70" x="965" y="-535" />
<rect fill="#84A1AE" height="70" rx="15" width="70" x="965" y="-835" />
<rect fill="#84A1AE" height="70" rx="15" width="70" x="965" y="-1935" />
<rect fill="#84A1AE" height="70" rx="15" width="70" x="965" y="-2235" />
<rect fill="#84A1AE" height="70" rx="15" width="70" x="1065" y="-535" />
<rect fill="#84A1AE" height="70" rx="15" width="70" x="1065" y="-2235" />
<rect fill="#84A1AE" height="70" rx="15" width="70" x="1165" y="-535" />
<rect fill="#84A1AE" height="70" rx="15" width="70" x="1165" y="-1035" />
<rect fill="#84A1AE" height="70" rx="15" width="70" x="1165" y="-1135" />
<rect fill="#84A1AE" height="70" rx="15" width="70" x="1165" y="-1735" />
<rect fill="#84A1AE" height="70" rx="15" width="70" x="1165" y="-2235" />
<rect fill="#84A1AE" height="70" rx="15" width="70" x="1265" y="-535" />
<rect fill="#84A1AE" height="70" rx="15" width="70" x="1265" y="-835" />
<rect fill="#84A1AE" height="70" rx="15" width="70" x="1265" y="-1035" />
<rect fill="#84A1AE" height="70" rx="15" width="70" x="1265" y="-1135" />
<rect fill="#84A1AE" height="70" rx="15" width="70" x="1265" y="-1235" />
<rect fill="#84A1AE" height="70" rx="15" width="70" x="1265" y="-1535" />
<rect fill="#84A1AE" height="70" rx="15" width="70" x="1265" y="-1735" />
<rect fill="#84A1AE" height="70" rx="15" width="70" x="1265" y="-1935" />
<rect fill="#84A1AE" height="70" rx="15" width="70" x="1265" y="-2135" />
<rect fill="#84A1AE" height="70" rx="15" width="70" x="1265" y="-2235" />
<rect fill="#84A1AE" height="70" rx="15" width="70" x="1365" y="-535" />
<rect fill="#84A1AE" height="70" rx="15" width="70" x="1365" y="-1035" />
<rect fill="#84A1AE" height="70" rx="15" width="70" x="1365" y="-1235" />
<rect fill="#84A1AE" height="70" rx="15" width="70" x="1365" y="-2035" />
<rect fill="#84A1AE" height="70" rx="15" width="70" x="1365" y="-2235" />
<rect fill="#84A1AE" height="70" rx="15" width="70" x="1465" y="-535" />
<rect fill="#84A1AE" height="70" rx="15" width="70" x="1465" y="-2235" />
<rect fill="#84A1AE" height="70" rx="15" width="70" x="1565" y="-535" />
<rect fill="#84A1AE" height="70" rx="15" width="70" x="1565" y="-1235" />
<rect fill="#84A1AE" height="70" rx="15" width="70" x="1565" y="-1435" />
<rect fill="#84A1AE" height="70" rx="15" width="70" x="1565" y="-2235" />
<rect fill="#84A1AE" height="70" rx="15" width="70" x="1665" y="-535" />
<rect fill="#84A1AE" height="70" rx="15" width="70" x="1665" y="-635" />
<rect fill="#84A1AE" height="70" rx="15" width="70" x="1665" y="-1335" />
<rect fill="#84A1AE" height="70" rx="15" width="70" x="1665" y="-1635" />
<rect fill="#84A1AE" height="70" rx="15" width="70" x="1665" y="-1735" />
<rect fill="#84A1AE" height="70" rx="15" width="70" x="1665" y="-2135" />
<rect fill="#84A1AE" height="70" rx="15" width="70" x="1665" y="-2235" />
<rect fill="#84A1AE" height="70" rx="15" width="70" x="1765" y="-535" />
<rect fill="#84A1AE" height="70" rx="15" width="70" x="1765" y="-2235" />
<rect fill="#84A1AE" height="70" rx="15" width="70" x="1865" y="-535" />
<rect fill="#84A1AE" height="70" rx="15" width="70" x="1865" y="-1235" />
<rect fill="#84A1AE" height="70" rx="15" width="70" x="1865" y="-1835" />
<rect fill="#84A1AE" height="70" rx="15" width="70" x="1865" y="-2035" />
<rect fill="#84A1AE" height="70" rx="15" width="70" x="1865" y="-2235" />
<rect fill="#84A1AE" height="70" rx="15" width="70" x="1965" y="-535" />
<rect fill="#84A1AE" height="70" rx="15" width="70" x="1965" y="-1135" />
<rect fill="#84A1AE" height="70" rx="15" width="70" x="1965" y="-1235" />
<rect fill="#84A1AE" height="70" rx="15" width="70" x="1965" y="-1635" />
<rect fill="#84A1AE" height="70" rx="15" width="70" x="1965" y="-2235" />
<rect fill="#84A1AE" height="70" rx="15" width="70" x="2065" y="-535" />
<rect fill="#84A1AE" height="70" rx="15" width="70" x="2065" y="-635" />
<rect fill="#84A1AE" height="70" rx="15" width="70" x="2065" y="-735" />
<rect fill="#84A1AE" height="70" rx="15" width="70" x="2065" y="-935" />
<rect fill="#84A1AE" height="70" rx="15" width="70" x="2065" y="-1335" />
<rect fill="#84A1AE" height="70" rx="15" width="70" x="2065" y="-1535" />
<rect fill="#84A1AE" height="70" rx="15" width="70" x="2065" y="-2035" />
<rect fill="#84A1AE" height="70" rx="15" width="70" x="2065" y="-2235" />
<rect fill="#84A1AE" height="70" rx="15" width="70" x="2165" y="-535" />
<rect fill="#84A1AE" height="70" rx="15" width="70" x="2165" y="-635" />
<rect fill="#84A1AE" height="70" rx="15" width="70" x="2165" y="-735" />
<rect fill="#84A1AE" height="70" rx="15" width="70" x="2165" y="-835" />
<rect fill="#84A1AE" height="70" rx="15" width="70" x="2165" y="-935" />
<rect fill="#84A1AE" height="70" rx="15" width="70" x="2165" y="-1035" />
<rect fill="#84A1AE" height="70" rx="15" width="70" x="2165" y="-1135" />
<rect fill="#84A1AE" height="70" rx="15" width="70" x="2165" y="-1235" />
<rect fill="#84A1AE" height="70" rx="15" width="70" x="2165" y="-1335" />
<rect fill="#84A1AE" height="70" rx="15" width="70" x="2165" y="-1435" />
<rect fill="#84A1AE" height="70" rx="15" width="70" x="2165" y="-1535" />
<rect fill="#84A1AE" height="70" rx="15" width="70" x="2165" y="-1635" />
<rect fill="#84A1AE" height="70" rx="15" width="70" x="2165" y="-1735" />
<rect fill="#84A1AE" height="70" rx="15" width="70" x="2165" y="-1835" />
<rect fill="#84A1AE" height="70" rx="15" width="70" x="2165" y="-1935" />
<rect fill="#84A1AE" height="70" rx="15" width="70" x="2165" y="-2035" />
<rect fill="#84A1AE" height="70" rx="15" width="70" x="2165" y="-2135" />
<rect fill="#84A1AE" height="70" rx="15" width="70" x="2165" y="-2235" />
<circle cx="700" cy="-2000" fill="#c1433c" r="35"> <animate attributeName="cy" dur="5.040000000000001s" keyTimes="0.0;0.0526315789;0.1052631579;0.1578947368;0.3157894737;0.3684210526;0.5789473684;0.6315789474;0.6842105263;0.8947368421;0.9473684211;1.0" repeatCount="indefinite" values="-2000;-2000;-2000;-2100;-2100;-2000;-2000;-1900;-1800;-1800;-1900;-1900"/>
<animate attributeName="cx" dur="5.040000000000001s" keyTimes="0.0;0.0526315789;0.1052631579;0.1578947368;0.2105263158;0.2631578947;0.3157894737;0.3684210526;0.4210526316;0.4736842105;0.5263157895;0.5789473684;0.6842105263;0.7368421053;0.7894736842;0.8421052632;0.8947368421;1.0" repeatCount="indefinite" values="700;700;800;800;900;1000;1100;1100;1200;1300;1300;1200;1200;1300;1400;1500;1600;1600"/>
<animate attributeName="visibility" dur="5.040000000000001s" keyTimes="0.0;0.0526315789;0.8947368421;0.9473684211;1.0" repeatCount="indefinite" values="visible;visible;visible;hidden;hidden"/> </circle>
<circle cx="1800" cy="-2000" fill="#2e6f9e" r="35"> <animate attributeName="cy" dur="5.040000000000001s" keyTimes="0.0;0.0526315789;0.4210526316;0.4736842105;0.5789473684;0.6315789474;0.6842105263;0.7368421053;0.8421052632;0.8947368421;1.0" repeatCount="indefinite" values="-2000;-2000;-2000;-1900;-1900;-2000;-2000;-2100;-2100;-2000;-2000"/>
<animate attributeName="cx" dur="5.040000000000001s" keyTimes="0.0;0.0526315789;0.1052631579;0.1578947368;0.2105263158;0.3684210526;0.4210526316;0.4736842105;0.5263157895;0.6315789474;0.6842105263;0.7368421053;0.7894736842;1.0" repeatCount="indefinite" values="1800;1800;1800;1700;1800;1800;1700;1700;1600;1600;1500;1500;1600;1600"/>
<animate attributeName="visibility" dur="5.040000000000001s" keyTimes="0.0;0.0526315789;1.0" repeatCount="indefinite" values="visible;visible;visible"/> </circle>
<circle cx="1600" cy="-1300" fill="#6e81af" r="35"> <animate attributeName="cy" dur="5.040000000000001s" keyTimes="0.0;0.0526315789;0.2105263158;0.2631578947;0.3684210526;0.4210526316;0.5789473684;0.6315789474;0.7368421053;0.7894736842;1.0" repeatCount="indefinite" values="-1300;-1300;-1300;-1400;-1400;-1300;-1300;-1400;-1400;-1300;-1300"/>
<animate attributeName="cx" dur="5.040000000000001s" keyTimes="0.0;0.0526315789;0.1052631579;0.1578947368;0.2105263158;0.3157894737;0.3684210526;0.4210526316;0.4736842105;0.5263157895;0.5789473684;0.6315789474;0.6842105263;0.7368421053;0.8947368421;0.9473684211;1.0" repeatCount="indefinite" values="1600;1600;1600;1500;1400;1400;1300;1300;1200;1300;1200;1200;1300;1200;1200;1100;1100"/>
<animate attributeName="visibility" dur="5.040000000000001s" keyTimes="0.0;0.0526315789;1.0" repeatCount="indefinite" values="visible;visible;visible"/> </circle>
<circle cx="1600" cy="-2100" fill="none" r="35" stroke="#c1433c" stroke-width="10"> <animate attributeName="cy" dur="5.040000000000001s" keyTimes="0.0;0.0526315789;1.0" repeatCount="indefinite" values="-2100;-2100;-2100"/>
<animate attributeName="cx" dur="5.040000000000001s" keyTimes="0.0;0.0526315789;1.0" repeatCount="indefinite" values="1600;1600;1600"/>
<animate attributeName="visibility" dur="5.040000000000001s" keyTimes="0.0;0.0526315789;0.8947368421;0.9473684211;1.0" repeatCount="indefinite" values="visible;visible;visible;hidden;hidden"/> </circle>
</svg>