<?xml version="1.0" encoding="UTF-8"?>
        <svg xmlns="http://www.w3.org/2000/svg" xmlns:xlink="http://www.w3.org/1999/xlink"
             width="270" height="270" viewBox="0 -2700 2700 2700">

<defs>

</defs>

<rect fill="#84A1AE" height="70" rx="15" width="70" x="465" y="-535" />
<rect fill="#84A1AE" height="70" rx="15" width="70" x="465" y="-635" />
<rect fill="#84A1AE" height="70" rx="15" width="70" x="465" y="-735" />
<rect fill="#84A1AE" height="70" rx="15" width="70" x="465" y="-835" />
<rect fill="#84A1AE" height="70" rx="15" width="70" x="465" y="-935" />
<rect fill="#84A1AE" height="70" rx="15" width="70" x="465" y="-1035" />
<rect fill="#84A1AE" height="70" rx="15" width="70" x="465" y="-1135" />
<rect fill="#84A1AE" height="70" rx="15" width="70" x="465" y="-1235" />
<rect fill="#84A1AE" height="70" rx="15" width="70" x="465" y="-1335" />
<rect fill="#84A1AE" height="70" rx="15" width="70" x="465" y="-1435" />
<rect fill="#84A1AE" height="70" rx="15" width="70" x="465" y="-1535" />
<rect fill="#84A1AE" height="70" rx="15" width="70" x="465" y="-1635" />
<rect fill="#84A1AE" height="70" rx="15" width="70" x="465" y="-1735" />
<rect fill="#84A1AE" height="70" rx="15" width="70" x="465" y="-1835" />
<rect fill="#84A1AE" height="70" rx="15" width="70" x="465" y="-1935" />
<rect fill="#84A1AE" height="70" rx="15" width="70" x="465" y="-2035" />
<rect fill="#84A1AE" height="70" rx="15" width="70" x="465" y="-2135" />
<rect fill="#84A1AE" height="70" rx="15" width="70" x="465" y="-2235" />
<rect fill="#84A1AE" height="70" rx="15" width="70" x="565" y="-535" />
<rect fill="#84A1AE" height="70" rx="15" width="70" x="565" y="-835" />
<rect fill="#84A1AE" height="70" rx="15" width="70" x="565" y="-1335" />
<rect fill="#84A1AE" height="70" rx="15" width="70" x="565" y="-1435" />
<rect fill="#84A1AE" height="70" rx="15" width="70" x="565" y="-1735" />
<rect fill="#84A1AE" height="70" rx="15" width="70" x="565" y="-2235" />
<rect fill="#84A1AE" height="70" rx="15" width="70" x="665" y="-535" />
<rect fill="#84A1AE" height="70" rx="15" width="70" x="665" y="-835" />
<rect fill="#84A1AE" height="70" rx="15" width="70" x="665" y="-935" />
<rect fill="#84A1AE" height="70" rx="15" width="70" x="665" y="-1635" />
<rect fill="#84A1AE" height="70" rx="15" width="70" x="665" y="-1735" />
<rect fill="#84A1AE" height="70" rx="15" width="70" x="665" y="-1835" />
<rect fill="#84A1AE" height="70" rx="15" width="70" x="665" y="-1935" />
<rect fill="#84A1AE" height="70" rx="15" width="70" x="665" y="-2235" />
<rect fill="#84A1AE" height="70" rx="15" width="70" x="765" y="-535" />
<rect fill="#84A1AE" height="70" rx="15" width="70" x="765" y="-935" />
<rect fill="#84A1AE" height="70" rx="15" width="70" x="765" y="-1335" />
<rect fill="#84A1AE" height="70" rx="15" width="70" x="765" y="-1735" />
<rect fill="#84A1AE" height="70" rx="15" width="70" x="765" y="-2235" />
<rect fill="#84A1AE" height="70" rx="15" width="70" x="865" y="-535" />
<rect fill="#84A1AE" height="70" rx="15" width="70" x="865" y="-1235" />
<rect fill="#84A1AE" height="70" rx="15" width="70" x="865" y="-2235" />
<rect fill="#84A1AE" height="70" rx="15" width="70" x="965" y="-535" />
<rect fill="#84A1AE" height="70" rx="15" width="70" x="965" y="-1335" />
<rect fill="#84A1AE" height="70" rx="15" width="70" x="965" y="-1535" />
<rect fill="#84A1AE" height="70" rx="15" width="70" x="965" y="-1635" />
<rect fill="#84A1AE" height="70" rx="15" width="70" x="965" y="-1935" />
<rect fill="#84A1AE" height="70" rx="15" width="70" x="965" y="-2035" />
<rect fill="#84A1AE" height="70" rx="15" width="70" x="965" y="-2235" />
<rect fill="#84A1AE" height="70" rx="15" width="70" x="1065" y="-535" />
<rect fill="#84A1AE" height="70" rx="15" width="70" x="1065" y="-635" />
<rect fill="#84A1AE" height="70" rx="15" width="70" x="1065" y="-735" />
<rect fill="#84A1AE" height="70" rx="15" width="70" x="1065" y="-835" />
<rect fill="#84A1AE" height="70" rx="15" width="70" x="1065" y="-1535" />
<rect fill="#84A1AE" height="70" rx="15" width="70" x="1065" y="-2235" />
<rect fill="#84A1AE" height="70" rx="15" width="70" x="1165" y="-535" />
<rect fill="#84A1AE" height="70" rx="15" width="70" x="1165" y="-935" />
<rect fill="#84A1AE" height="70" rx="15" width="70" x="1165" y="-2035" />
<rect fill="#84A1AE" height="70" rx="15" width="70" x="1165" y="-2235" />
<rect fill="#84A1AE" height="70" rx="15" width="70" x="1265" y="-535" />
<rect fill="#84A1AE" height="70" rx="15" width="70" x="1265" y="-835" />
<rect fill="#84A1AE" height="70" rx="15" width="70" x="1265" y="-1535" />
<rect fill="#84A1AE" height="70" rx="15" width="70" x="1265" y="-1635" />
<rect fill="#84A1AE" height="70" rx="15" width="70" x="1265" y="-2135" />
<rect fill="#84A1AE" height="70" rx="15" width="70" x="1265" y="-2235" />
<rect fill="#84A1AE" height="70" rx="15" width="70" x="1365" y="-535" />
<rect fill="#84A1AE" height="70" rx="15" width="70" x="1365" y="-1035" />
<rect fill="#84A1AE" height="70" rx="15" width="70" x="1365" y="-1935" />
<rect fill="#84A1AE" height="70" rx="15" width="70" x="1365" y="-2235" />
<rect fill="#84A1AE" height="70" rx="15" width="70" x="1465" y="-535" />
<rect fill="#84A1AE" height="70" rx="15" width="70" x="1465" y="-635" />
<rect fill="#84A1AE" height="70" rx="15" width="70" x="1465" y="-735" />
<rect fill="#84A1AE" height="70" rx="15" width="70" x="1465" y="-1335" />
<rect fill="#84A1AE" height="70" rx="15" width="70" x="1465" y="-1535" />
<rect fill="#84A1AE" height="70" rx="15" width="70" x="1465" y="-1635" />
<rect fill="#84A1AE" height="70" rx="15" width="70" x="1465" y="-2235" />
<rect fill="#84A1AE" height="70" rx="15" width="70" x="1565" y="-535" />
<rect fill="#84A1AE" height="70" rx="15" width="70" x="1565" y="-1735" />
<rect fill="#84A1AE" height="70" rx="15" width="70" x="1565" y="-1935" />
<rect fill="#84A1AE" height="70" rx="15" width="70" x="1565" y="-2235" />
<rect fill="#84A1AE" height="70" rx="15" width="70" x="1665" y="-535" />
<rect fill="#84A1AE" height="70" rx="15" width="70" x="1665" y="-935" />
<rect fill="#84A1AE" height="70" rx="15" width="70" x="1665" y="-2235" />
<rect fill="#84A1AE" height="70" rx="15" width="70" x="1765" y="-535" />
<rect fill="#84A1AE" height="70" rx="15" width="70" x="1765" y="-1135" />
<rect fill="#84A1AE" height="70" rx="15" width="70" x="1765" y="-1235" />
<rect fill="#84A1AE" height="70" rx="15" width="70" x="1765" y="-1835" />
<rect fill="#84A1AE" height="70" rx="15" width="70" x="1765" y="-2135" />
<rect fill="#84A1AE" height="70" rx="15" width="70" x="1765" y="-2235" />
<rect fill="#84A1AE" height="70" rx="15" width="70" x="1865" y="-535" />
<rect fill="#84A1AE" height="70" rx="15" width="70" x="1865" y="-1435" />
<rect fill="#84A1AE" height="70" rx="15" width="70" x="1865" y="-1635" />
<rect fill="#84A1AE" height="70" rx="15" width="70" x="1865" y="-2235" />
<rect fill="#84A1AE" height="70" rx="15" width="70" x="1965" y="-535" />
<rect fill="#84A1AE" height="70" rx="15" width="70" x="1965" y="-635" />
<rect fill="#84A1AE" height="70" rx="15" width="70" x="1965" y="-1935" />
<rect fill="#84A1AE" height="70" rx="15" width="70" x="1965" y="-2235" />
<rect fill="#84A1AE" height="70" rx="15" width="70" x="2065" y="-535" />
<rect fill="#84A1AE" height="70" rx="15" width="70" x="2065" y="-1135" />
<rect fill="#84A1AE" height="70" rx="15" width="70" x="2065" y="-2035" />
<rect fill="#84A1AE" height="70" rx="15" width="70" x="2065" y="-2235" />
<rect fill="#84A1AE" height="70" rx="15" width="70" x="2165" y="-535" />
<rect fill="#84A1AE" height="70" rx="15" width="70" x="2165" y="-635" />
<rect fill="#84A1AE" height="70" rx="15" width="70" x="2165" y="-735" />
<rect fill="#84A1AE" height="70" rx="15" width="70" x="2165" y="-835" />
<rect fill="#84A1AE" height="70" rx="15" width="70" x="2165" y="-935" />
<rect fill="#84A1AE" height="70" rx="15" width="70" x="2165" y="-1035" />
<rect fill="#84A1AE" height="70" rx="15" width="70" x="2165" y="-1135" />
<rect fill="#84A1AE" height="70" rx="15" width="70" x="2165" y="-1235" />
<rect fill="#84A1AE" height="70" rx="15" width="70" x="2165" y="-1335" />
<rect fill="#84A1AE" height="70" rx="15" width="70" x="2165" y="-1435" />
<rect fill="#84A1AE" height="70" rx="15" width="70" x="2165" y="-1535" />
<rect fill="#84A1AE" height="70" rx="15" width="70" x="2165" y="-1635" />
<rect fill="#84A1AE" height="70" rx="15" width="70" x="2165" y="-1735" />
<rect fill="#84A1AE" height="70" rx="15" width="70" x="2165" y="-1835" />
<rect fill="#84A1AE" height="70" rx="15" width="70" x="2165" y="-1935" />
<rect fill="#84A1AE" height="70" rx="15" width="70" x="2165" y="-2035" />
<rect fill="#84A1AE" height="70" rx="15" width="70" x="2165" y="-2135" />
<rect fill="#84A1AE" height="70" rx="15" width="70" x="2165" y="-2235" />
<circle cx="2100" cy="-2100" fill="#c1433c" r="35"> <animate attributeName="cy" dur="22.680000000000003s" keyTimes="0.0;0.012195122;0.3536585366;0.3658536585;0.3780487805;0.3902439024;0.4024390244;0.4146341463;0.4268292683;0.4390243902;0.4512195122;0.9024390244;0.9146341463;0.9512195122;0.9634146341;0.9756097561;1.0" repeatCount="indefinite" values="-2100;-2100;-2100;-2000;-2100;-2000;-2100;-2000;-2100;-2000;-2100;-2100;-2000;-2000;-1900;-1800;-1800"/>
<animate attributeName="cx" dur="22.680000000000003s" keyTimes="0.0;0.012195122;0.3414634146;0.3536585366;0.4512195122;0.4634146341;0.8536585366;0.8658536585;0.8780487805;0.8902439024;0.9024390244;0.9146341463;0.9268292683;0.9390243902;0.9512195122;0.9756097561;0.987804878;1.0" repeatCount="indefinite" values="2100;2100;2100;2000;2000;2100;2100;2000;1900;1900;2000;2000;1900;1800;1700;1700;1600;1600"/>
<animate attributeName="visibility" dur="22.680000000000003s" keyTimes="0.0;0.012195122;0.9756097561;0.987804878;1.0" repeatCount="indefinite" values="visible;visible;visible;hidden;hidden"/> </circle>
<circle cx="1300" cy="-1400" fill="#2e6f9e" r="35"> <animate attributeName="cy" dur="22.680000000000003s" keyTimes="0.0;0.012195122;0.0243902439;0.0365853659;0.0487804878;0.0731707317;0.0853658537;0.0975609756;0.1097560976;0.1341463415;0.1463414634;0.1585365854;0.1707317073;0.1829268293;0.1951219512;0.2073170732;0.2317073171;0.243902439;0.256097561;0.2682926829;0.2804878049;0.2926829268;0.3170731707;0.3292682927;0.3414634146;0.3536585366;0.3658536585;0.3780487805;0.4024390244;0.4146341463;0.4268292683;0.4390243902;0.4512195122;0.4634146341;0.4756097561;0.487804878;0.5;0.512195122;0.5243902439;0.5365853659;0.5487804878;0.5853658537;0.5975609756;0.6097560976;0.6219512195;0.6829268293;0.6951219512;0.7073170732;0.7195121951;0.7317073171;0.743902439;0.7926829268;0.8048780488;0.8780487805;0.8902439024;0.9024390244;0.9146341463;0.9268292683;0.9390243902;0.9512195122;0.9634146341;0.9756097561;1.0" repeatCount="indefinite" values="-1400;-1400;-1400;-1300;-1400;-1400;-1300;-1300;-1200;-1200;-1300;-1400;-1400;-1300;-1400;-1500;-1500;-1400;-1300;-1300;-1200;-1300;-1300;-1200;-1200;-1300;-1300;-1400;-1400;-1300;-1400;-1500;-1600;-1700;-1700;-1800;-1800;-1900;-1900;-1800;-1900;-1900;-2000;-2000;-1900;-1900;-1800;-1900;-1900;-1800;-1900;-1900;-2000;-2000;-2100;-2000;-2000;-1900;-1900;-1800;-1800;-1900;-1900"/>
<animate attributeName="cx" dur="22.680000000000003s" keyTimes="0.0;0.012195122;0.0487804878;0.0609756098;0.0731707317;0.0853658537;0.0975609756;0.1097560976;0.1219512195;0.1585365854;0.1707317073;0.2926829268;0.3048780488;0.3170731707;0.3292682927;0.3414634146;0.3902439024;0.4024390244;0.4634146341;0.4756097561;0.487804878;0.5;0.5609756098;0.5731707317;0.6219512195;0.6341463415;0.6585365854;0.6707317073;0.743902439;0.756097561;0.7682926829;0.8292682927;0.8414634146;0.8536585366;0.8658536585;0.9024390244;0.9146341463;1.0" repeatCount="indefinite" values="1300;1300;1300;1200;1100;1100;1200;1200;1100;1100;1200;1200;1300;1200;1200;1100;1100;1200;1200;1300;1300;1200;1200;1100;1100;1200;1200;1100;1100;1200;1300;1300;1400;1500;1600;1600;1500;1500"/>
<animate attributeName="visibility" dur="22.680000000000003s" keyTimes="0.0;0.012195122;1.0" repeatCount="indefinite" values="visible;visible;visible"/> </circle>
<circle cx="600" cy="-1100" fill="#6e81af" r="35"> <animate attributeName="cy" dur="22.680000000000003s" keyTimes="0.0;0.012195122;0.0365853659;0.0487804878;0.1219512195;0.1341463415;0.1463414634;0.1585365854;0.1707317073;0.256097561;0.2682926829;0.2804878049;0.2926829268;0.3048780488;0.3170731707;0.3414634146;0.3536585366;0.3658536585;0.3780487805;0.3902439024;0.4146341463;0.4268292683;0.487804878;0.5;0.5853658537;0.5975609756;0.6097560976;0.6219512195;0.6341463415;0.6463414634;0.6829268293;0.6951219512;0.7073170732;0.7195121951;0.7317073171;0.743902439;0.8170731707;0.8292682927;0.8658536585;0.8780487805;0.8902439024;0.9146341463;0.9268292683;0.9390243902;0.9512195122;1.0" repeatCount="indefinite" values="-1100;-1100;-1100;-1200;-1200;-1100;-1200;-1200;-1100;-1100;-1000;-900;-1000;-1100;-1200;-1200;-1300;-1300;-1400;-1500;-1500;-1600;-1600;-1500;-1500;-1600;-1700;-1800;-1900;-1800;-1800;-1900;-1800;-1900;-1900;-2000;-2000;-2100;-2100;-2000;-2100;-2100;-2000;-1900;-1800;-1800"/>
<animate attributeName="cx" dur="22.680000000000003s" keyTimes="0.0;0.012195122;0.0243902439;0.0365853659;0.0487804878;0.0609756098;0.1707317073;0.1829268293;0.1951219512;0.3170731707;0.3292682927;0.4024390244;0.4146341463;0.512195122;0.5243902439;0.5365853659;0.5487804878;0.5609756098;0.5731707317;0.5853658537;0.6463414634;0.6585365854;0.6707317073;0.6829268293;0.7195121951;0.7317073171;0.756097561;0.7682926829;0.7804878049;0.7926829268;0.8292682927;0.8414634146;0.8536585366;0.8658536585;0.8902439024;0.9024390244;0.9146341463;0.9512195122;0.9634146341;0.9756097561;1.0" repeatCount="indefinite" values="600;600;600;700;700;600;600;700;600;600;700;700;600;600;700;700;600;700;800;900;900;1000;1100;1200;1200;1300;1300;1400;1500;1400;1400;1500;1600;1700;1700;1600;1700;1700;1600;1500;1500"/>
<animate attributeName="visibility" dur="22.680000000000003s" keyTimes="0.0;0.012195122;1.0" repeatCount="indefinite" values="visible;visible;visible"/> </circle>
<circle cx="1700" cy="-1100" fill="none" r="35" stroke="#c1433c" stroke-width="10"> <animate attributeName="cy" dur="22.680000000000003s" keyTimes="0.0;0.012195122;1.0" repeatCount="indefinite" values="-1100;-1100;-1100"/>
<animate attributeName="cx" dur="22.680000000000003s" keyTimes="0.0;0.012195122;1.0" repeatCount="indefinite" values="1700;1700;1700"/>
<animate attributeName="visibility" dur="22.680000000000003s" keyTimes="0.0;0.012195122;0.9756097561;0.987804878;1.0" repeatCount="indefinite" values="visible;visible;visible;hidden;hidden"/> </circle>
</svg>