<?xml version="1.0" encoding="UTF-8"?>
        <svg xmlns="http://www.w3.org/2000/svg" xmlns:xlink="http://www.w3.org/1999/xlink"
             width="270" height="270" viewBox="0 -2700 2700 2700">

<defs>

</defs>

<rect fill="#84A1AE" height="70" rx="15" width="70" x="465" y="-535" />
<rect fill="#84A1AE" height="70" rx="15" width="70" x="465" y="-635" />
<rect fill="#84A1AE" height="70" rx="15" width="70" x="465" y="-735" />
<rect fill="#84A1AE" height="70" rx="15" width="70" x="465" y="-835" />
<rect fill="#84A1AE" height="70" rx="15" width="70" x="465" y="-935" />
<rect fill="#84A1AE" height="70" rx="15" width="70" x="465" y="-1035" />
<rect fill="#84A1AE" height="70" rx="15" width="70" x="465" y="-1135" />
<rect fill="#84A1AE" height="70" rx="15" width="70" x="465" y="-1235" />
<rect fill="#84A1AE" height="70" rx="15" width="70" x="465" y="-1335" />
<rect fill="#84A1AE" height="70" rx="15" width="70" x="465" y="-1435" />
<rect fill="#84A1AE" height="70" rx="15" width="70" x="465" y="-1535" />
<rect fill="#84A1AE" height="70" rx="15" width="70" x="465" y="-1635" />
<rect fill="#84A1AE" height="70" rx="15" width="70" x="465" y="-1735" />
<rect fill="#84A1AE" height="70" rx="15" width="70" x="465" y="-1835" />
<rect fill="#84A1AE" height="70" rx="15" width="70" x="465" y="-1935" />
<rect fill="#84A1AE" height="70" rx="15" width="70" x="465" y="-2035" />
<rect fill="#84A1AE" height="70" rx="15" width="70" x="465" y="-2135" />
<rect fill="#84A1AE" height="70" rx="15" width="70" x="465" y="-2235" />
<rect fill="#84A1AE" height="70" rx="15" width="70" x="565" y="-535" />
<rect fill="#84A1AE" height="70" rx="15" width="70" x="565" y="-935" />
<rect fill="#84A1AE" height="70" rx="15" width="70" x="565" y="-2135" />
<rect fill="#84A1AE" height="70" rx="15" width="70" x="565" y="-2235" />
<rect fill="#84A1AE" height="70" rx="15" width="70" x="665" y="-535" />
<rect fill="#84A1AE" height="70" rx="15" width="70" x="665" y="-835" />
<rect fill="#84A1AE" height="70" rx="15" width="70" x="665" y="-1035" />
<rect fill="#84A1AE" height="70" rx="15" width="70" x="665" y="-1135" />
<rect fill="#84A1AE" height="70" rx="15" width="70" x="665" y="-1635" />
<rect fill="#84A1AE" height="70" rx="15" width="70" x="665" y="-2235" />
<rect fill="#84A1AE" height="70" rx="15" width="70" x="765" y="-535" />
<rect fill="#84A1AE" height="70" rx="15" width="70" x="765" y="-635" />
<rect fill="#84A1AE" height="70" rx="15" width="70" x="765" y="-835" />
<rect fill="#84A1AE" height="70" rx="15" width="70" x="765" y="-2135" />
<rect fill="#84A1AE" height="70" rx="15" width="70" x="765" y="-2235" />
<rect fill="#84A1AE" height="70" rx="15" width="70" x="865" y="-535" />
<rect fill="#84A1AE" height="70" rx="15" width="70" x="865" y="-935" />
<rect fill="#84A1AE" height="70" rx="15" width="70" x="865" y="-1035" />
<rect fill="#84A1AE" height="70" rx="15" width="70" x="865" y="-1135" />
<rect fill="#84A1AE" height="70" rx="15" width="70" x="865" y="-1635" />
<rect fill="#84A1AE" height="70" rx="15" width="70" x="865" y="-1935" />
<rect fill="#84A1AE" height="70" rx="15" width="70" x="865" y="-2235" />
<rect fill="#84A1AE" height="70" rx="15" width="70" x="965" y="-535" />
<rect fill="#84A1AE" height="70" rx="15" width="70" x="965" y="-1135" />
<rect fill="#84A1AE" height="70" rx="15" width="70" x="965" y="-1835" />
<rect fill="#84A1AE" height="70" rx="15" width="70" x="965" y="-1935" />
<rect fill="#84A1AE" height="70" rx="15" width="70" x="965" y="-2235" />
<rect fill="#84A1AE" height="70" rx="15" width="70" x="1065" y="-535" />
<rect fill="#84A1AE" height="70" rx="15" width="70" x="1065" y="-2135" />
<rect fill="#84A1AE" height="70" rx="15" width="70" x="1065" y="-2235" />
<rect fill="#84A1AE" height="70" rx="15" width="70" x="1165" y="-535" />
<rect fill="#84A1AE" height="70" rx="15" width="70" x="1165" y="-635" />
<rect fill="#84A1AE" height="70" rx="15" width="70" x="1165" y="-835" />
<rect fill="#84A1AE" height="70" rx="15" width="70" x="1165" y="-935" />
<rect fill="#84A1AE" height="70" rx="15" width="70" x="1165" y="-1035" />
<rect fill="#84A1AE" height="70" rx="15" width="70" x="1165" y="-1435" />
<rect fill="#84A1AE" height="70" rx="15" width="70" x="1165" y="-2235" />
<rect fill="#84A1AE" height="70" rx="15" width="70" x="1265" y="-535" />
<rect fill="#84A1AE" height="70" rx="15" width="70" x="1265" y="-635" />
<rect fill="#84A1AE" height="70" rx="15" width="70" x="1265" y="-835" />
<rect fill="#84A1AE" height="70" rx="15" width="70" x="1265" y="-1035" />
<rect fill="#84A1AE" height="70" rx="15" width="70" x="1265" y="-1135" />
<rect fill="#84A1AE" height="70" rx="15" width="70" x="1265" y="-1535" />
<rect fill="#84A1AE" height="70" rx="15" width="70" x="1265" y="-2135" />
<rect fill="#84A1AE" height="70" rx="15" width="70" x="1265" y="-2235" />
<rect fill="#84A1AE" height="70" rx="15" width="70" x="1365" y="-535" />
<rect fill="#84A1AE" height="70" rx="15" width="70" x="1365" y="-735" />
<rect fill="#84A1AE" height="70" rx="15" width="70" x="1365" y="-1035" />
<rect fill="#84A1AE" height="70" rx="15" width="70" x="1365" y="-1435" />
<rect fill="#84A1AE" height="70" rx="15" width="70" x="1365" y="-1535" />
<rect fill="#84A1AE" height="70" rx="15" width="70" x="1365" y="-2035" />
<rect fill="#84A1AE" height="70" rx="15" width="70" x="1365" y="-2135" />
<rect fill="#84A1AE" height="70" rx="15" width="70" x="1365" y="-2235" />
<rect fill="#84A1AE" height="70" rx="15" width="70" x="1465" y="-535" />
<rect fill="#84A1AE" height="70" rx="15" width="70" x="1465" y="-1835" />
<rect fill="#84A1AE" height="70" rx="15" width="70" x="1465" y="-2235" />
<rect fill="#84A1AE" height="70" rx="15" width="70" x="1565" y="-535" />
<rect fill="#84A1AE" height="70" rx="15" width="70" x="1565" y="-1235" />
<rect fill="#84A1AE" height="70" rx="15" width="70" x="1565" y="-1435" />
<rect fill="#84A1AE" height="70" rx="15" width="70" x="1565" y="-1835" />
<rect fill="#84A1AE" height="70" rx="15" width="70" x="1565" y="-2135" />
<rect fill="#84A1AE" height="70" rx="15" width="70" x="1565" y="-2235" />
<rect fill="#84A1AE" height="70" rx="15" width="70" x="1665" y="-535" />
<rect fill="#84A1AE" height="70" rx="15" width="70" x="1665" y="-635" />
<rect fill="#84A1AE" height="70" rx="15" width="70" x="1665" y="-935" />
<rect fill="#84A1AE" height="70" rx="15" width="70" x="1665" y="-1435" />
<rect fill="#84A1AE" height="70" rx="15" width="70" x="1665" y="-1735" />
<rect fill="#84A1AE" height="70" rx="15" width="70" x="1665" y="-2235" />
<rect fill="#84A1AE" height="70" rx="15" width="70" x="1765" y="-535" />
<rect fill="#84A1AE" height="70" rx="15" width="70" x="1765" y="-635" />
<rect fill="#84A1AE" height="70" rx="15" width="70" x="1765" y="-835" />
<rect fill="#84A1AE" height="70" rx="15" width="70" x="1765" y="-1135" />
<rect fill="#84A1AE" height="70" rx="15" width="70" x="1765" y="-1335" />
<rect fill="#84A1AE" height="70" rx="15" width="70" x="1765" y="-1435" />
<rect fill="#84A1AE" height="70" rx="15" width="70" x="1765" y="-1635" />
<rect fill="#84A1AE" height="70" rx="15" width="70" x="1765" y="-1735" />
<rect fill="#84A1AE" height="70" rx="15" width="70" x="1765" y="-2035" />
<rect fill="#84A1AE" height="70" rx="15" width="70" x="1765" y="-2235" />
<rect fill="#84A1AE" height="70" rx="15" width="70" x="1865" y="-535" />
<rect fill="#84A1AE" height="70" rx="15" width="70" x="1865" y="-835" />
<rect fill="#84A1AE" height="70" rx="15" width="70" x="1865" y="-1235" />
<rect fill="#84A1AE" height="70" rx="15" width="70" x="1865" y="-1635" />
<rect fill="#84A1AE" height="70" rx="15" width="70" x="1865" y="-2235" />
<rect fill="#84A1AE" height="70" rx="15" width="70" x="1965" y="-535" />
<rect fill="#84A1AE" height="70" rx="15" width="70" x="1965" y="-1235" />
<rect fill="#84A1AE" height="70" rx="15" width="70" x="1965" y="-1335" />
<rect fill="#84A1AE" height="70" rx="15" width="70" x="1965" y="-1735" />
<rect fill="#84A1AE" height="70" rx="15" width="70" x="1965" y="-2235" />
<rect fill="#84A1AE" height="70" rx="15" width="70" x="2065" y="-535" />
<rect fill="#84A1AE" height="70" rx="15" width="70" x="2065" y="-735" />
<rect fill="#84A1AE" height="70" rx="15" width="70" x="2065" y="-935" />
<rect fill="#84A1AE" height="70" rx="15" width="70" x="2065" y="-1035" />
<rect fill="#84A1AE" height="70" rx="15" width="70" x="2065" y="-1235" />
<rect fill="#84A1AE" height="70" rx="15" width="70" x="2065" y="-1735" />
<rect fill="#84A1AE" height="70" rx="15" width="70" x="2065" y="-1935" />
<rect fill="#84A1AE" height="70" rx="15" width="70" x="2065" y="-2135" />
<rect fill="#84A1AE" height="70" rx="15" width="70" x="2065" y="-2235" />
<rect fill="#84A1AE" height="70" rx="15" width="70" x="2165" y="-535" />
<rect fill="#84A1AE" height="70" rx="15" width="70" x="2165" y="-635" />
<rect fill="#84A1AE" height="70" rx="15" width="70" x="2165" y="-735" />
<rect fill="#84A1AE" height="70" rx="15" width="70" x="2165" y="-835" />
<rect fill="#84A1AE" height="70" rx="15" width="70" x="2165" y="-935" />
<rect fill="#84A1AE" height="70" rx="15" width="70" x="2165" y="-1035" />
<rect fill="#84A1AE" height="70" rx="15" width="70" x="2165" y="-1135" />
<rect fill="#84A1AE" height="70" rx="15" width="70" x="2165" y="-1235" />
<rect fill="#84A1AE" height="70" rx="15" width="70" x="2165" y="-1335" />
<rect fill="#84A1AE" height="70" rx="15" width="70" x="2165" y="-1435" />
<rect fill="#84A1AE" height="70" rx="15" width="70" x="2165" y="-1535" />
<rect fill="#84A1AE" height="70" rx="15" width="70" x="2165" y="-1635" />
<rect fill="#84A1AE" height="70" rx="15" width="70" x="2165" y="-1735" />
<rect fill="#84A1AE" height="70" rx="15" width="70" x="2165" y="-1835" />
<rect fill="#84A1AE" height="70" rx="15" width="70" x="2165" y="-1935" />
<rect fill="#84A1AE" height="70" rx="15" width="70" x="2165" y="-2035" />
<rect fill="#84A1AE" height="70" rx="15" width="70" x="2165" y="-2135" />
<rect fill="#84A1AE" height="70" rx="15" width="70" x="2165" y="-2235" />
<circle cx="1600" cy="-1900" fill="#c1433c" r="35"> <animate attributeName="cy" dur="61.32000000000001s" keyTimes="0.0;0.0045454545;1.0" repeatCount="indefinite" values="-1900;-1900;-1900"/>
<animate attributeName="cx" dur="61.32000000000001s" keyTimes="0.0;0.0045454545;0.0090909091;0.0136363636;0.0181818182;0.0227272727;0.0272727273;0.0318181818;0.0363636364;0.0409090909;0.0454545455;0.05;0.0545454545;0.0590909091;0.0636363636;0.0681818182;0.0727272727;0.0772727273;0.0818181818;0.0863636364;0.0909090909;0.0954545455;0.1;0.1045454545;0.1090909091;0.1136363636;0.1181818182;0.1227272727;0.1272727273;0.1318181818;0.1363636364;0.1409090909;0.1454545455;0.15;0.1545454545;0.1590909091;0.1636363636;0.1681818182;0.1727272727;0.1772727273;0.1818181818;0.1863636364;0.1909090909;0.1954545455;0.2;0.2045454545;0.2090909091;0.2136363636;0.2181818182;0.2227272727;0.2272727273;0.2318181818;0.2363636364;0.2409090909;0.2454545455;0.25;0.2545454545;0.2590909091;0.2636363636;0.2681818182;0.2727272727;0.2772727273;0.2818181818;0.2863636364;0.2909090909;0.2954545455;0.3;0.3045454545;0.3090909091;0.3136363636;0.3181818182;0.3227272727;0.3272727273;0.3318181818;0.3363636364;0.3409090909;0.3454545455;0.35;0.3545454545;0.3590909091;0.3636363636;0.3681818182;0.3727272727;0.3772727273;0.3818181818;0.3863636364;0.3909090909;0.3954545455;0.4;0.4045454545;0.4090909091;0.4136363636;0.4181818182;0.4227272727;0.4272727273;0.4318181818;0.4363636364;0.4409090909;0.4454545455;0.45;0.4545454545;0.4590909091;0.4636363636;0.4681818182;0.4727272727;0.4772727273;0.4818181818;0.4863636364;0.4909090909;0.4954545455;0.5;0.5045454545;0.5090909091;0.5136363636;0.5181818182;0.5227272727;0.5272727273;0.5318181818;0.5363636364;0.5409090909;0.5454545455;0.55;0.5545454545;0.5590909091;0.5636363636;0.5681818182;0.5727272727;0.5772727273;0.5818181818;0.5863636364;0.5909090909;0.5954545455;0.6;0.6045454545;0.6090909091;0.6136363636;0.6181818182;0.6227272727;0.6272727273;0.6318181818;0.6363636364;0.6409090909;0.6454545455;0.65;0.6545454545;0.6590909091;0.6636363636;0.6681818182;0.6727272727;0.6772727273;0.6818181818;0.6863636364;0.6909090909;0.6954545455;0.7;0.7045454545;0.7090909091;0.7136363636;0.7181818182;0.7227272727;0.7272727273;0.7318181818;0.7363636364;0.7409090909;0.7454545455;0.75;0.7545454545;0.7590909091;0.7636363636;0.7681818182;0.7727272727;0.7772727273;0.7818181818;0.7863636364;0.7909090909;0.7954545455;0.8;0.8045454545;0.8090909091;0.8136363636;0.8181818182;0.8227272727;0.8272727273;0.8318181818;0.8363636364;0.8409090909;0.8454545455;0.85;0.8545454545;0.8590909091;0.8636363636;0.8681818182;0.8727272727;0.8772727273;0.8818181818;0.8863636364;0.8909090909;0.8954545455;0.9;0.9045454545;0.9090909091;0.9136363636;0.9181818182;0.9227272727;0.9272727273;0.9318181818;0.9363636364;0.9409090909;0.9454545455;0.95;0.9545454545;0.9590909091;0.9636363636;0.9681818182;0.9727272727;0.9772727273;0.9818181818;0.9863636364;0.9909090909;0.9954545455;1.0" repeatCount="indefinite" values="1600;1600;1700;1600;1700;1600;1700;1600;1700;1600;1700;1600;1700;1600;1700;1600;1700;1600;1700;1600;1700;1600;1700;1600;1700;1600;1700;1600;1700;1600;1700;1600;1700;1600;1700;1600;1700;1600;1700;1600;1700;1600;1700;1600;1700;1600;1700;1600;1700;1600;1700;1600;1700;1600;1700;1600;1700;1600;1700;1600;1700;1600;1700;1600;1700;1600;1700;1600;1700;1600;1700;1600;1700;1600;1700;1600;1700;1600;1700;1600;1700;1600;1700;1600;1700;1600;1700;1600;1700;1600;1700;1600;1700;1600;1700;1600;1700;1600;1700;1600;1700;1600;1700;1600;1700;1600;1700;1600;1700;1600;1700;1600;1700;1600;1700;1600;1700;1600;1700;1600;1700;1600;1700;1600;1700;1600;1700;1600;1700;1600;1700;1600;1700;1600;1700;1600;1700;1600;1700;1600;1700;1600;1700;1600;1700;1600;1700;1600;1700;1600;1700;1600;1700;1600;1700;1600;1700;1600;1700;1600;1700;1600;1700;1600;1700;1600;1700;1600;1700;1600;1700;1600;1700;1600;1700;1600;1700;1600;1700;1600;1700;1600;1700;1600;1700;1600;1700;1600;1700;1600;1700;1600;1700;1600;1700;1600;1700;1600;1700;1600;1700;1600;1700;1600;1700;1600;1700;1600;1700;1600;1700;1600;1700;1600;1700;1600;1700;1600;1700;1600;1600"/>
<animate attributeName="visibility" dur="61.32000000000001s" keyTimes="0.0;0.0045454545;0.9909090909;0.9954545455;1.0" repeatCount="indefinite" values="visible;visible;visible;hidden;hidden"/> </circle>
<circle cx="1100" cy="-1700" fill="#2e6f9e" r="35"> <animate attributeName="cy" dur="61.32000000000001s" keyTimes="0.0;0.0045454545;0.0363636364;0.0409090909;0.0454545455;0.0545454545;0.0590909091;0.0636363636;0.0681818182;0.0772727273;0.0818181818;0.0954545455;0.1;0.1136363636;0.1181818182;0.1227272727;0.1272727273;0.1318181818;0.1363636364;0.15;0.1545454545;0.1636363636;0.1681818182;0.2045454545;0.2090909091;0.2181818182;0.2227272727;0.25;0.2545454545;0.2636363636;0.2681818182;0.2818181818;0.2863636364;0.3363636364;0.3409090909;0.3590909091;0.3636363636;0.3772727273;0.3818181818;0.3909090909;0.3954545455;0.4136363636;0.4181818182;0.4227272727;0.4272727273;0.4318181818;0.4409090909;0.4454545455;0.5045454545;0.5090909091;0.5227272727;0.5272727273;0.5363636364;0.5409090909;0.5454545455;0.5590909091;0.5636363636;0.5681818182;0.6;0.6045454545;0.6272727273;0.6318181818;0.65;0.6545454545;0.6954545455;0.7;0.7045454545;0.7090909091;0.7136363636;0.7181818182;0.7318181818;0.7363636364;0.75;0.7545454545;0.7590909091;0.7636363636;0.7681818182;0.7727272727;0.7863636364;0.7909090909;0.8045454545;0.8090909091;0.8318181818;0.8363636364;0.8409090909;0.85;0.8545454545;0.8636363636;0.8681818182;0.8818181818;0.8863636364;0.8909090909;0.9181818182;0.9227272727;0.9272727273;0.9409090909;0.9454545455;0.95;0.9545454545;0.9772727273;0.9818181818;0.9863636364;1.0" repeatCount="indefinite" values="-1700;-1700;-1700;-1600;-1700;-1700;-1600;-1600;-1700;-1700;-1600;-1600;-1700;-1700;-1600;-1600;-1700;-1600;-1700;-1700;-1600;-1600;-1700;-1700;-1600;-1600;-1700;-1700;-1600;-1600;-1700;-1700;-1600;-1600;-1700;-1700;-1600;-1600;-1700;-1700;-1600;-1600;-1700;-1600;-1600;-1700;-1700;-1600;-1600;-1700;-1700;-1600;-1600;-1500;-1600;-1600;-1500;-1600;-1600;-1700;-1700;-1600;-1600;-1700;-1700;-1600;-1600;-1700;-1700;-1600;-1600;-1700;-1700;-1600;-1600;-1700;-1600;-1700;-1700;-1600;-1600;-1700;-1700;-1600;-1700;-1700;-1600;-1600;-1700;-1700;-1800;-1700;-1700;-1600;-1700;-1700;-1600;-1600;-1700;-1700;-1800;-1900;-1900"/>
<animate attributeName="cx" dur="61.32000000000001s" keyTimes="0.0;0.0045454545;0.0090909091;0.0136363636;0.0181818182;0.0227272727;0.0272727273;0.0318181818;0.0363636364;0.05;0.0545454545;0.0818181818;0.0863636364;0.1090909091;0.1136363636;0.1181818182;0.1227272727;0.1454545455;0.15;0.1545454545;0.1590909091;0.1772727273;0.1818181818;0.1863636364;0.1909090909;0.2090909091;0.2136363636;0.2318181818;0.2363636364;0.2409090909;0.2454545455;0.25;0.2545454545;0.2590909091;0.2727272727;0.2772727273;0.2863636364;0.2909090909;0.2954545455;0.3;0.3045454545;0.3272727273;0.3318181818;0.3363636364;0.3454545455;0.35;0.3545454545;0.3590909091;0.3636363636;0.3681818182;0.3727272727;0.3863636364;0.3909090909;0.3954545455;0.4;0.4045454545;0.4090909091;0.4363636364;0.4409090909;0.4454545455;0.45;0.4590909091;0.4636363636;0.4681818182;0.4727272727;0.4772727273;0.4954545455;0.5;0.5181818182;0.5227272727;0.5272727273;0.5318181818;0.5363636364;0.55;0.5545454545;0.5590909091;0.5954545455;0.6;0.6090909091;0.6136363636;0.6318181818;0.6363636364;0.6409090909;0.6454545455;0.6636363636;0.6681818182;0.6727272727;0.6772727273;0.7;0.7045454545;0.7090909091;0.7136363636;0.7181818182;0.7227272727;0.7454545455;0.75;0.7545454545;0.7590909091;0.7818181818;0.7863636364;0.7909090909;0.7954545455;0.8181818182;0.8227272727;0.8272727273;0.8318181818;0.8545454545;0.8590909091;0.8727272727;0.8772727273;0.8818181818;0.8909090909;0.8954545455;0.9454545455;0.95;0.9590909091;0.9636363636;0.9681818182;0.9727272727;0.9772727273;0.9863636364;0.9909090909;1.0" repeatCount="indefinite" values="1100;1100;1200;1300;1400;1500;1600;1500;1600;1600;1500;1500;1600;1600;1500;1500;1600;1600;1500;1500;1600;1600;1500;1600;1500;1500;1600;1600;1500;1500;1600;1500;1500;1600;1600;1500;1500;1600;1700;1600;1700;1700;1600;1500;1500;1600;1500;1400;1400;1500;1600;1600;1500;1500;1600;1700;1600;1600;1500;1500;1600;1600;1500;1500;1600;1700;1700;1600;1600;1500;1500;1600;1700;1700;1600;1700;1700;1600;1600;1500;1500;1600;1500;1600;1600;1500;1600;1500;1500;1400;1400;1500;1500;1600;1600;1500;1500;1600;1600;1500;1500;1600;1600;1500;1600;1500;1500;1600;1600;1500;1400;1400;1500;1500;1600;1600;1500;1400;1300;1400;1400;1500;1500"/>
<animate attributeName="visibility" dur="61.32000000000001s" keyTimes="0.0;0.0045454545;1.0" repeatCount="indefinite" values="visible;visible;visible"/> </circle>
<circle cx="2000" cy="-1600" fill="#6e81af" r="35"> <animate attributeName="cy" dur="61.32000000000001s" keyTimes="0.0;0.0045454545;0.0136363636;0.0181818182;0.0409090909;0.0454545455;0.0590909091;0.0636363636;0.1045454545;0.1090909091;0.1136363636;0.1181818182;0.1272727273;0.1318181818;0.1454545455;0.15;0.1636363636;0.1681818182;0.1727272727;0.1772727273;0.1863636364;0.1909090909;0.2272727273;0.2318181818;0.2454545455;0.25;0.2636363636;0.2681818182;0.2727272727;0.2772727273;0.3;0.3045454545;0.3090909091;0.3181818182;0.3227272727;0.3272727273;0.3409090909;0.3454545455;0.35;0.3545454545;0.3681818182;0.3727272727;0.3863636364;0.3909090909;0.4272727273;0.4318181818;0.4363636364;0.4409090909;0.4727272727;0.4772727273;0.4863636364;0.4909090909;0.5136363636;0.5181818182;0.5227272727;0.5272727273;0.5363636364;0.5409090909;0.5454545455;0.55;0.5545454545;0.5590909091;0.5681818182;0.5727272727;0.5818181818;0.5863636364;0.5909090909;0.6;0.6045454545;0.6090909091;0.6136363636;0.6590909091;0.6636363636;0.6727272727;0.6772727273;0.7;0.7045454545;0.7090909091;0.7136363636;0.7409090909;0.7454545455;0.75;0.7545454545;0.7636363636;0.7681818182;0.7818181818;0.7863636364;0.8136363636;0.8181818182;0.8318181818;0.8363636364;0.8636363636;0.8681818182;0.8727272727;0.8772727273;0.8818181818;0.8863636364;0.8909090909;0.8954545455;0.9136363636;0.9181818182;0.9227272727;0.9454545455;0.95;0.9590909091;0.9636363636;0.9863636364;0.9909090909;1.0" repeatCount="indefinite" values="-1600;-1600;-1600;-1500;-1500;-1600;-1600;-1700;-1700;-1600;-1600;-1700;-1700;-1600;-1600;-1700;-1700;-1600;-1700;-1600;-1600;-1700;-1700;-1600;-1600;-1700;-1700;-1600;-1600;-1700;-1700;-1600;-1700;-1700;-1600;-1700;-1700;-1600;-1600;-1700;-1700;-1600;-1600;-1700;-1700;-1600;-1600;-1700;-1700;-1600;-1600;-1700;-1700;-1600;-1600;-1700;-1700;-1600;-1600;-1700;-1700;-1600;-1600;-1700;-1700;-1600;-1700;-1700;-1600;-1600;-1700;-1700;-1600;-1600;-1700;-1700;-1600;-1600;-1700;-1700;-1600;-1600;-1700;-1700;-1600;-1600;-1700;-1700;-1600;-1600;-1700;-1700;-1600;-1600;-1700;-1700;-1600;-1600;-1700;-1700;-1600;-1700;-1700;-1600;-1600;-1700;-1700;-1600;-1600"/>
<animate attributeName="cx" dur="61.32000000000001s" keyTimes="0.0;0.0045454545;0.0090909091;0.0136363636;0.0181818182;0.0227272727;0.0272727273;0.0318181818;0.0363636364;0.0454545455;0.05;0.0545454545;0.0590909091;0.0772727273;0.0818181818;0.0863636364;0.0909090909;0.0954545455;0.1090909091;0.1136363636;0.1181818182;0.1227272727;0.1318181818;0.1363636364;0.15;0.1545454545;0.1590909091;0.1636363636;0.1772727273;0.1818181818;0.2136363636;0.2181818182;0.2363636364;0.2409090909;0.25;0.2545454545;0.2590909091;0.2636363636;0.2681818182;0.2727272727;0.2818181818;0.2863636364;0.2909090909;0.2954545455;0.3;0.3090909091;0.3136363636;0.3181818182;0.3272727273;0.3318181818;0.3363636364;0.3545454545;0.3590909091;0.3636363636;0.3681818182;0.3772727273;0.3818181818;0.4;0.4045454545;0.4090909091;0.4136363636;0.4181818182;0.4227272727;0.4272727273;0.4318181818;0.4363636364;0.4409090909;0.4454545455;0.45;0.4545454545;0.4590909091;0.4636363636;0.4681818182;0.4727272727;0.4772727273;0.4818181818;0.4909090909;0.4954545455;0.5;0.5045454545;0.5181818182;0.5227272727;0.5272727273;0.5318181818;0.5363636364;0.55;0.5545454545;0.5590909091;0.5636363636;0.5727272727;0.5772727273;0.5818181818;0.5954545455;0.6;0.6045454545;0.6090909091;0.6272727273;0.6318181818;0.6363636364;0.6409090909;0.6454545455;0.65;0.6636363636;0.6681818182;0.6954545455;0.7;0.7045454545;0.7090909091;0.7136363636;0.7181818182;0.7227272727;0.7272727273;0.7318181818;0.7454545455;0.75;0.7545454545;0.7590909091;0.7681818182;0.7727272727;0.7863636364;0.7909090909;0.7954545455;0.8;0.8045454545;0.8181818182;0.8227272727;0.8272727273;0.8318181818;0.85;0.8545454545;0.8590909091;0.8636363636;0.8681818182;0.8727272727;0.8772727273;0.8818181818;0.8863636364;0.8909090909;0.9409090909;0.9454545455;0.95;0.9545454545;0.9636363636;0.9681818182;0.9727272727;0.9772727273;0.9818181818;0.9863636364;0.9909090909;0.9954545455;1.0" repeatCount="indefinite" values="2000;2000;2100;2000;2000;1900;1800;1700;1600;1600;1700;1700;1600;1600;1500;1600;1600;1500;1500;1600;1600;1500;1500;1600;1600;1500;1600;1500;1500;1600;1600;1500;1500;1600;1600;1500;1600;1500;1500;1600;1600;1500;1600;1500;1600;1600;1500;1600;1600;1500;1600;1600;1500;1600;1500;1500;1600;1600;1500;1600;1500;1500;1600;1500;1500;1600;1600;1500;1600;1600;1500;1500;1600;1500;1500;1600;1600;1500;1600;1500;1500;1600;1600;1500;1600;1600;1500;1500;1600;1600;1500;1600;1600;1500;1500;1600;1600;1500;1400;1500;1600;1500;1500;1600;1600;1500;1500;1600;1600;1500;1600;1600;1500;1500;1600;1600;1500;1500;1600;1600;1500;1600;1600;1500;1500;1600;1700;1600;1600;1500;1600;1500;1500;1600;1600;1500;1500;1600;1600;1500;1500;1600;1600;1500;1600;1500;1400;1500;1500;1600;1600"/>
<animate attributeName="visibility" dur="61.32000000000001s" keyTimes="0.0;0.0045454545;1.0" repeatCount="indefinite" values="visible;visible;visible"/> </circle>
<circle cx="2100" cy="-1600" fill="none" r="35" stroke="#c1433c" stroke-width="10"> <animate attributeName="cy" dur="61.32000000000001s" keyTimes="0.0;0.0045454545;1.0" repeatCount="indefinite" values="-1600;-1600;-1600"/>
<animate attributeName="cx" dur="61.32000000000001s" keyTimes="0.0;0.0045454545;1.0" repeatCount="indefinite" values="2100;2100;2100"/>
<animate attributeName="visibility" dur="61.32000000000001s" keyTimes="0.0;0.0045454545;0.9909090909;0.9954545455;1.0" repeatCount="indefinite" values="visible;visible;visible;hidden;hidden"/> </circle>
</svg>