<?xml version="1.0" encoding="UTF-8"?>
        <svg xmlns="http://www.w3.org/2000/svg" xmlns:xlink="http://www.w3.org/1999/xlink"
             width="270" height="270" viewBox="0 -2700 2700 2700">

<defs>

</defs>

<rect fill="#84A1AE" height="70" rx="15" width="70" x="465" y="-535" />
<rect fill="#84A1AE" height="70" rx="15" width="70" x="465" y="-635" />
<rect fill="#84A1AE" height="70" rx="15" width="70" x="465" y="-735" />
<rect fill="#84A1AE" height="70" rx="15" width="70" x="465" y="-835" />
<rect fill="#84A1AE" height="70" rx="15" width="70" x="465" y="-935" />
<rect fill="#84A1AE" height="70" rx="15" width="70" x="465" y="-1035" />
<rect fill="#84A1AE" height="70" rx="15" width="70" x="465" y="-1135" />
<rect fill="#84A1AE" height="70" rx="15" width="70" x="465" y="-1235" />
<rect fill="#84A1AE" height="70" rx="15" width="70" x="465" y="-1335" />
<rect fill="#84A1AE" height="70" rx="15" width="70" x="465" y="-1435" />
<rect fill="#84A1AE" height="70" rx="15" width="70" x="465" y="-1535" />
<rect fill="#84A1AE" height="70" rx="15" width="70" x="465" y="-1635" />
<rect fill="#84A1AE" height="70" rx="15" width="70" x="465" y="-1735" />
<rect fill="#84A1AE" height="70" rx="15" width="70" x="465" y="-1835" />
<rect fill="#84A1AE" height="70" rx="15" width="70" x="465" y="-1935" />
<rect fill="#84A1AE" height="70" rx="15" width="70" x="465" y="-2035" />
<rect fill="#84A1AE" height="70" rx="15" width="70" x="465" y="-2135" />
<rect fill="#84A1AE" height="70" rx="15" width="70" x="465" y="-2235" />
<rect fill="#84A1AE" height="70" rx="15" width="70" x="565" y="-535" />
<rect fill="#84A1AE" height="70" rx="15" width="70" x="565" y="-635" />
<rect fill="#84A1AE" height="70" rx="15" width="70" x="565" y="-1635" />
<rect fill="#84A1AE" height="70" rx="15" width="70" x="565" y="-1735" />
<rect fill="#84A1AE" height="70" rx="15" width="70" x="565" y="-2235" />
<rect fill="#84A1AE" height="70" rx="15" width="70" x="665" y="-535" />
<rect fill="#84A1AE" height="70" rx="15" width="70" x="665" y="-735" />
<rect fill="#84A1AE" height="70" rx="15" width="70" x="665" y="-935" />
<rect fill="#84A1AE" height="70" rx="15" width="70" x="665" y="-1535" />
<rect fill="#84A1AE" height="70" rx="15" width="70" x="665" y="-1735" />
<rect fill="#84A1AE" height="70" rx="15" width="70" x="665" y="-2035" />
<rect fill="#84A1AE" height="70" rx="15" width="70" x="665" y="-2235" />
<rect fill="#84A1AE" height="70" rx="15" width="70" x="765" y="-535" />
<rect fill="#84A1AE" height="70" rx="15" width="70" x="765" y="-835" />
<rect fill="#84A1AE" height="70" rx="15" width="70" x="765" y="-1235" />
<rect fill="#84A1AE" height="70" rx="15" width="70" x="765" y="-1335" />
<rect fill="#84A1AE" height="70" rx="15" width="70" x="765" y="-1735" />
<rect fill="#84A1AE" height="70" rx="15" width="70" x="765" y="-1835" />
<rect fill="#84A1AE" height="70" rx="15" width="70" x="765" y="-2235" />
<rect fill="#84A1AE" height="70" rx="15" width="70" x="865" y="-535" />
<rect fill="#84A1AE" height="70" rx="15" width="70" x="865" y="-1735" />
<rect fill="#84A1AE" height="70" rx="15" width="70" x="865" y="-2235" />
<rect fill="#84A1AE" height="70" rx="15" width="70" x="965" y="-535" />
<rect fill="#84A1AE" height="70" rx="15" width="70" x="965" y="-635" />
<rect fill="#84A1AE" height="70" rx="15" width="70" x="965" y="-1035" />
<rect fill="#84A1AE" height="70" rx="15" width="70" x="965" y="-1335" />
<rect fill="#84A1AE" height="70" rx="15" width="70" x="965" y="-2235" />
<rect fill="#84A1AE" height="70" rx="15" width="70" x="1065" y="-535" />
<rect fill="#84A1AE" height="70" rx="15" width="70" x="1065" y="-1735" />
<rect fill="#84A1AE" height="70" rx="15" width="70" x="1065" y="-2235" />
<rect fill="#84A1AE" height="70" rx="15" width="70" x="1165" y="-535" />
<rect fill="#84A1AE" height="70" rx="15" width="70" x="1165" y="-735" />
<rect fill="#84A1AE" height="70" rx="15" width="70" x="1165" y="-1235" />
<rect fill="#84A1AE" height="70" rx="15" width="70" x="1165" y="-1635" />
<rect fill="#84A1AE" height="70" rx="15" width="70" x="1165" y="-2235" />
<rect fill="#84A1AE" height="70" rx="15" width="70" x="1265" y="-535" />
<rect fill="#84A1AE" height="70" rx="15" width="70" x="1265" y="-935" />
<rect fill="#84A1AE" height="70" rx="15" width="70" x="1265" y="-1935" />
<rect fill="#84A1AE" height="70" rx="15" width="70" x="1265" y="-2235" />
<rect fill="#84A1AE" height="70" rx="15" width="70" x="1365" y="-535" />
<rect fill="#84A1AE" height="70" rx="15" width="70" x="1365" y="-635" />
<rect fill="#84A1AE" height="70" rx="15" width="70" x="1365" y="-1035" />
<rect fill="#84A1AE" height="70" rx="15" width="70" x="1365" y="-1335" />
<rect fill="#84A1AE" height="70" rx="15" width="70" x="1365" y="-1735" />
<rect fill="#84A1AE" height="70" rx="15" width="70" x="1365" y="-2235" />
<rect fill="#84A1AE" height="70" rx="15" width="70" x="1465" y="-535" />
<rect fill="#84A1AE" height="70" rx="15" width="70" x="1465" y="-935" />
<rect fill="#84A1AE" height="70" rx="15" width="70" x="1465" y="-1635" />
<rect fill="#84A1AE" height="70" rx="15" width="70" x="1465" y="-1735" />
<rect fill="#84A1AE" height="70" rx="15" width="70" x="1465" y="-1835" />
<rect fill="#84A1AE" height="70" rx="15" width="70" x="1465" y="-2235" />
<rect fill="#84A1AE" height="70" rx="15" width="70" x="1565" y="-535" />
<rect fill="#84A1AE" height="70" rx="15" width="70" x="1565" y="-835" />
<rect fill="#84A1AE" height="70" rx="15" width="70" x="1565" y="-1035" />
<rect fill="#84A1AE" height="70" rx="15" width="70" x="1565" y="-2035" />
<rect fill="#84A1AE" height="70" rx="15" width="70" x="1565" y="-2235" />
<rect fill="#84A1AE" height="70" rx="15" width="70" x="1665" y="-535" />
<rect fill="#84A1AE" height="70" rx="15" width="70" x="1665" y="-635" />
<rect fill="#84A1AE" height="70" rx="15" width="70" x="1665" y="-735" />
<rect fill="#84A1AE" height="70" rx="15" width="70" x="1665" y="-835" />
<rect fill="#84A1AE" height="70" rx="15" width="70" x="1665" y="-1735" />
<rect fill="#84A1AE" height="70" rx="15" width="70" x="1665" y="-1835" />
<rect fill="#84A1AE" height="70" rx="15" width="70" x="1665" y="-2235" />
<rect fill="#84A1AE" height="70" rx="15" width="70" x="1765" y="-535" />
<rect fill="#84A1AE" height="70" rx="15" width="70" x="1765" y="-835" />
<rect fill="#84A1AE" height="70" rx="15" width="70" x="1765" y="-1035" />
<rect fill="#84A1AE" height="70" rx="15" width="70" x="1765" y="-1335" />
<rect fill="#84A1AE" height="70" rx="15" width="70" x="1765" y="-1635" />
<rect fill="#84A1AE" height="70" rx="15" width="70" x="1765" y="-1735" />
<rect fill="#84A1AE" height="70" rx="15" width="70" x="1765" y="-2235" />
<rect fill="#84A1AE" height="70" rx="15" width="70" x="1865" y="-535" />
<rect fill="#84A1AE" height="70" rx="15" width="70" x="1865" y="-835" />
<rect fill="#84A1AE" height="70" rx="15" width="70" x="1865" y="-1235" />
<rect fill="#84A1AE" height="70" rx="15" width="70" x="1865" y="-2235" />
<rect fill="#84A1AE" height="70" rx="15" width="70" x="1965" y="-535" />
<rect fill="#84A1AE" height="70" rx="15" width="70" x="1965" y="-1135" />
<rect fill="#84A1AE" height="70" rx="15" width="70" x="1965" y="-2235" />
<rect fill="#84A1AE" height="70" rx="15" width="70" x="2065" y="-535" />
<rect fill="#84A1AE" height="70" rx="15" width="70" x="2065" y="-635" />
<rect fill="#84A1AE" height="70" rx="15" width="70" x="2065" y="-735" />
<rect fill="#84A1AE" height="70" rx="15" width="70" x="2065" y="-835" />
<rect fill="#84A1AE" height="70" rx="15" width="70" x="2065" y="-1035" />
<rect fill="#84A1AE" height="70" rx="15" width="70" x="2065" y="-1735" />
<rect fill="#84A1AE" height="70" rx="15" width="70" x="2065" y="-1835" />
<rect fill="#84A1AE" height="70" rx="15" width="70" x="2065" y="-2235" />
<rect fill="#84A1AE" height="70" rx="15" width="70" x="2165" y="-535" />
<rect fill="#84A1AE" height="70" rx="15" width="70" x="2165" y="-635" />
<rect fill="#84A1AE" height="70" rx="15" width="70" x="2165" y="-735" />
<rect fill="#84A1AE" height="70" rx="15" width="70" x="2165" y="-835" />
<rect fill="#84A1AE" height="70" rx="15" width="70" x="2165" y="-935" />
<rect fill="#84A1AE" height="70" rx="15" width="70" x="2165" y="-1035" />
<rect fill="#84A1AE" height="70" rx="15" width="70" x="2165" y="-1135" />
<rect fill="#84A1AE" height="70" rx="15" width="70" x="2165" y="-1235" />
<rect fill="#84A1AE" height="70" rx="15" width="70" x="2165" y="-1335" />
<rect fill="#84A1AE" height="70" rx="15" width="70" x="2165" y="-1435" />
<rect fill="#84A1AE" height="70" rx="15" width="70" x="2165" y="-1535" />
<rect fill="#84A1AE" height="70" rx="15" width="70" x="2165" y="-1635" />
<rect fill="#84A1AE" height="70" rx="15" width="70" x="2165" y="-1735" />
<rect fill="#84A1AE" height="70" rx="15" width="70" x="2165" y="-1835" />
<rect fill="#84A1AE" height="70" rx="15" width="70" x="2165" y="-1935" />
<rect fill="#84A1AE" height="70" rx="15" width="70" x="2165" y="-2035" />
<rect fill="#84A1AE" height="70" rx="15" width="70" x="2165" y="-2135" />
<rect fill="#84A1AE" height="70" rx="15" width="70" x="2165" y="-2235" />
<circle cx="1400" cy="-1900" fill="#c1433c" r="35"> <animate attributeName="cy" dur="22.400000000000002s" keyTimes="0.0;0.012345679;0.024691358;0.2098765432;0.2222222222;0.5555555556;0.5679012346;0.5802469136;0.5925925926;0.6049382716;0.6419753086;0.6543209877;0.6666666667;0.6790123457;0.6913580247;0.7037037037;0.7160493827;0.7283950617;0.7407407407;0.7654320988;0.7777777778;0.8024691358;0.8148148148;0.8395061728;0.8518518519;0.8765432099;0.8888888889;0.950617284;0.962962963;0.975308642;1.0" repeatCount="indefinite" values="-1900;-1900;-2000;-2000;-1900;-1900;-1800;-1800;-1900;-2000;-2000;-2100;-2000;-2100;-2000;-2100;-2000;-2000;-1900;-1900;-2000;-2000;-1900;-1900;-2000;-2000;-1900;-1900;-2000;-2100;-2100"/>
<animate attributeName="cx" dur="22.400000000000002s" keyTimes="0.0;0.012345679;0.024691358;0.037037037;0.049382716;0.0617283951;0.2222222222;0.2345679012;0.2469135802;0.2592592593;0.2716049383;0.2839506173;0.2962962963;0.3086419753;0.3209876543;0.3333333333;0.3456790123;0.3580246914;0.3703703704;0.3827160494;0.3950617284;0.4074074074;0.4197530864;0.4320987654;0.4444444444;0.4567901235;0.4691358025;0.4814814815;0.4938271605;0.5061728395;0.5185185185;0.5308641975;0.5432098765;0.5555555556;0.6049382716;0.6172839506;0.6296296296;0.6419753086;0.7530864198;0.7654320988;0.7777777778;0.7901234568;0.8271604938;0.8395061728;0.8518518519;0.8641975309;0.9135802469;0.9259259259;0.9382716049;0.950617284;0.975308642;0.987654321;1.0" repeatCount="indefinite" values="1400;1400;1400;1500;1400;1500;1500;1600;1700;1800;1900;2000;1900;1800;1900;2000;1900;1800;1900;2000;1900;1800;1900;2000;1900;1800;1900;2000;1900;1800;1900;2000;1900;1800;1800;1900;2000;2100;2100;2000;2000;2100;2100;2000;2000;2100;2100;2000;1900;1800;1800;1700;1700"/>
<animate attributeName="visibility" dur="22.400000000000002s" keyTimes="0.0;0.012345679;0.975308642;0.987654321;1.0" repeatCount="indefinite" values="visible;visible;visible;hidden;hidden"/> </circle>
<circle cx="800" cy="-1100" fill="#2e6f9e" r="35"> <animate attributeName="cy" dur="22.400000000000002s" keyTimes="0.0;0.012345679;0.049382716;0.0617283951;0.0740740741;0.0864197531;0.0987654321;0.1234567901;0.1358024691;0.1728395062;0.1851851852;0.1975308642;0.2345679012;0.2469135802;0.2592592593;0.2716049383;0.2839506173;0.2962962963;0.3580246914;0.3703703704;0.3827160494;0.3950617284;0.5555555556;0.5679012346;0.6172839506;0.6296296296;0.6419753086;0.6543209877;0.6666666667;0.7901234568;0.8024691358;0.8395061728;0.8518518519;0.962962963;0.975308642;1.0" repeatCount="indefinite" values="-1100;-1100;-1100;-1200;-1300;-1400;-1500;-1500;-1600;-1600;-1700;-1800;-1800;-1700;-1700;-1800;-1800;-1900;-1900;-2000;-2000;-1900;-1900;-2000;-2000;-2100;-2000;-2000;-2100;-2100;-2000;-2000;-2100;-2100;-2000;-2000"/>
<animate attributeName="cx" dur="22.400000000000002s" keyTimes="0.0;0.012345679;0.024691358;0.037037037;0.049382716;0.0987654321;0.1111111111;0.1234567901;0.1481481481;0.1604938272;0.1975308642;0.2098765432;0.2222222222;0.2345679012;0.2962962963;0.3086419753;0.3209876543;0.3703703704;0.3827160494;0.3950617284;0.4074074074;0.4197530864;0.4320987654;0.4444444444;0.4567901235;0.4691358025;0.4814814815;0.4938271605;0.5061728395;0.5185185185;0.5308641975;0.5802469136;0.5925925926;0.6049382716;0.6172839506;0.6419753086;0.6543209877;0.6666666667;0.6790123457;0.6913580247;0.7037037037;0.8024691358;0.8148148148;0.8271604938;0.8395061728;0.8518518519;0.8641975309;0.8765432099;0.8888888889;0.9012345679;1.0" repeatCount="indefinite" values="800;800;900;1000;900;900;1000;1100;1100;1000;1000;900;900;1000;1000;1100;1200;1200;1100;1100;1000;1100;1000;900;1000;1100;1000;1100;1000;1100;1000;1000;1100;1200;1100;1100;1200;1200;1100;1100;1200;1200;1300;1200;1300;1300;1400;1500;1600;1700;1700"/>
<animate attributeName="visibility" dur="22.400000000000002s" keyTimes="0.0;0.012345679;1.0" repeatCount="indefinite" values="visible;visible;visible"/> </circle>
<circle cx="800" cy="-1400" fill="#6e81af" r="35"> <animate attributeName="cy" dur="22.400000000000002s" keyTimes="0.0;0.012345679;0.037037037;0.049382716;0.0617283951;0.0740740741;0.0864197531;0.1358024691;0.1481481481;0.1604938272;0.1728395062;0.1851851852;0.1975308642;0.2716049383;0.2839506173;0.3086419753;0.3209876543;0.3456790123;0.3580246914;0.3703703704;0.3950617284;0.4074074074;0.4197530864;0.4320987654;0.4444444444;0.4567901235;0.4814814815;0.4938271605;0.5061728395;0.5185185185;0.5308641975;0.5432098765;0.5679012346;0.5802469136;0.5925925926;0.6049382716;0.6172839506;0.6296296296;0.6419753086;0.6543209877;0.6666666667;0.6790123457;0.7037037037;0.7160493827;0.7530864198;0.7654320988;0.7901234568;0.8024691358;0.8148148148;0.8271604938;0.8395061728;0.8518518519;0.8641975309;0.8888888889;0.9012345679;0.9259259259;0.9382716049;0.962962963;0.975308642;0.987654321;1.0" repeatCount="indefinite" values="-1400;-1400;-1400;-1500;-1600;-1500;-1600;-1600;-1500;-1600;-1500;-1500;-1400;-1400;-1300;-1300;-1400;-1400;-1500;-1600;-1600;-1500;-1500;-1600;-1600;-1500;-1500;-1400;-1400;-1500;-1500;-1600;-1600;-1500;-1600;-1600;-1700;-1700;-1600;-1600;-1700;-1600;-1600;-1700;-1700;-1600;-1600;-1700;-1800;-1800;-1900;-2000;-2100;-2100;-2000;-2000;-2100;-2100;-2000;-2100;-2100"/>
<animate attributeName="cx" dur="22.400000000000002s" keyTimes="0.0;0.012345679;0.0864197531;0.0987654321;0.1111111111;0.1234567901;0.1358024691;0.1728395062;0.1851851852;0.1975308642;0.2098765432;0.2222222222;0.2345679012;0.2469135802;0.2592592593;0.2716049383;0.2962962963;0.3086419753;0.3209876543;0.3333333333;0.3456790123;0.3827160494;0.3950617284;0.4074074074;0.4197530864;0.5185185185;0.5308641975;0.5432098765;0.5555555556;0.5679012346;0.5925925926;0.6049382716;0.6790123457;0.6913580247;0.7037037037;0.7654320988;0.7777777778;0.7901234568;0.8148148148;0.8271604938;0.8765432099;0.8888888889;0.9012345679;0.9135802469;0.9382716049;0.950617284;1.0" repeatCount="indefinite" values="800;800;800;900;900;800;900;900;800;800;700;800;800;700;600;700;700;600;600;700;800;800;900;900;800;800;900;900;1000;900;900;1000;1000;1100;1000;1000;900;1000;1000;1100;1100;1200;1200;1300;1300;1400;1400"/>
<animate attributeName="visibility" dur="22.400000000000002s" keyTimes="0.0;0.012345679;1.0" repeatCount="indefinite" values="visible;visible;visible"/> </circle>
<circle cx="1200" cy="-1100" fill="none" r="35" stroke="#c1433c" stroke-width="10"> <animate attributeName="cy" dur="22.400000000000002s" keyTimes="0.0;0.012345679;1.0" repeatCount="indefinite" values="-1100;-1100;-1100"/>
<animate attributeName="cx" dur="22.400000000000002s" keyTimes="0.0;0.012345679;1.0" repeatCount="indefinite" values="1200;1200;1200"/>
<animate attributeName="visibility" dur="22.400000000000002s" keyTimes="0.0;0.012345679;0.975308642;0.987654321;1.0" repeatCount="indefinite" values="visible;visible;visible;hidden;hidden"/> </circle>
</svg>