<?xml version="1.0" encoding="UTF-8"?>
        <svg xmlns="http://www.w3.org/2000/svg" xmlns:xlink="http://www.w3.org/1999/xlink"
             width="270" height="270" viewBox="0 -2700 2700 2700">

<defs>

</defs>

<rect fill="#84A1AE" height="70" rx="15" width="70" x="465" y="-535" />
<rect fill="#84A1AE" height="70" rx="15" width="70" x="465" y="-635" />
<rect fill="#84A1AE" height="70" rx="15" width="70" x="465" y="-735" />
<rect fill="#84A1AE" height="70" rx="15" width="70" x="465" y="-835" />
<rect fill="#84A1AE" height="70" rx="15" width="70" x="465" y="-935" />
<rect fill="#84A1AE" height="70" rx="15" width="70" x="465" y="-1035" />
<rect fill="#84A1AE" height="70" rx="15" width="70" x="465" y="-1135" />
<rect fill="#84A1AE" height="70" rx="15" width="70" x="465" y="-1235" />
<rect fill="#84A1AE" height="70" rx="15" width="70" x="465" y="-1335" />
<rect fill="#84A1AE" height="70" rx="15" width="70" x="465" y="-1435" />
<rect fill="#84A1AE" height="70" rx="15" width="70" x="465" y="-1535" />
<rect fill="#84A1AE" height="70" rx="15" width="70" x="465" y="-1635" />
<rect fill="#84A1AE" height="70" rx="15" width="70" x="465" y="-1735" />
<rect fill="#84A1AE" height="70" rx="15" width="70" x="465" y="-1835" />
<rect fill="#84A1AE" height="70" rx="15" width="70" x="465" y="-1935" />
<rect fill="#84A1AE" height="70" rx="15" width="70" x="465" y="-2035" />
<rect fill="#84A1AE" height="70" rx="15" width="70" x="465" y="-2135" />
<rect fill="#84A1AE" height="70" rx="15" width="70" x="465" y="-2235" />
<rect fill="#84A1AE" height="70" rx="15" width="70" x="565" y="-535" />
<rect fill="#84A1AE" height="70" rx="15" width="70" x="565" y="-835" />
<rect fill="#84A1AE" height="70" rx="15" width="70" x="565" y="-2235" />
<rect fill="#84A1AE" height="70" rx="15" width="70" x="665" y="-535" />
<rect fill="#84A1AE" height="70" rx="15" width="70" x="665" y="-1335" />
<rect fill="#84A1AE" height="70" rx="15" width="70" x="665" y="-1935" />
<rect fill="#84A1AE" height="70" rx="15" width="70" x="665" y="-2235" />
<rect fill="#84A1AE" height="70" rx="15" width="70" x="765" y="-535" />
<rect fill="#84A1AE" height="70" rx="15" width="70" x="765" y="-2235" />
<rect fill="#84A1AE" height="70" rx="15" width="70" x="865" y="-535" />
<rect fill="#84A1AE" height="70" rx="15" width="70" x="865" y="-1635" />
<rect fill="#84A1AE" height="70" rx="15" width="70" x="865" y="-2235" />
<rect fill="#84A1AE" height="70" rx="15" width="70" x="965" y="-535" />
<rect fill="#84A1AE" height="70" rx="15" width="70" x="965" y="-1135" />
<rect fill="#84A1AE" height="70" rx="15" width="70" x="965" y="-1435" />
<rect fill="#84A1AE" height="70" rx="15" width="70" x="965" y="-2235" />
<rect fill="#84A1AE" height="70" rx="15" width="70" x="1065" y="-535" />
<rect fill="#84A1AE" height="70" rx="15" width="70" x="1065" y="-635" />
<rect fill="#84A1AE" height="70" rx="15" width="70" x="1065" y="-1135" />
<rect fill="#84A1AE" height="70" rx="15" width="70" x="1065" y="-1235" />
<rect fill="#84A1AE" height="70" rx="15" width="70" x="1065" y="-1735" />
<rect fill="#84A1AE" height="70" rx="15" width="70" x="1065" y="-2035" />
<rect fill="#84A1AE" height="70" rx="15" width="70" x="1065" y="-2235" />
<rect fill="#84A1AE" height="70" rx="15" width="70" x="1165" y="-535" />
<rect fill="#84A1AE" height="70" rx="15" width="70" x="1165" y="-935" />
<rect fill="#84A1AE" height="70" rx="15" width="70" x="1165" y="-1135" />
<rect fill="#84A1AE" height="70" rx="15" width="70" x="1165" y="-1835" />
<rect fill="#84A1AE" height="70" rx="15" width="70" x="1165" y="-2235" />
<rect fill="#84A1AE" height="70" rx="15" width="70" x="1265" y="-535" />
<rect fill="#84A1AE" height="70" rx="15" width="70" x="1265" y="-935" />
<rect fill="#84A1AE" height="70" rx="15" width="70" x="1265" y="-1035" />
<rect fill="#84A1AE" height="70" rx="15" width="70" x="1265" y="-2035" />
<rect fill="#84A1AE" height="70" rx="15" width="70" x="1265" y="-2235" />
<rect fill="#84A1AE" height="70" rx="15" width="70" x="1365" y="-535" />
<rect fill="#84A1AE" height="70" rx="15" width="70" x="1365" y="-835" />
<rect fill="#84A1AE" height="70" rx="15" width="70" x="1365" y="-1235" />
<rect fill="#84A1AE" height="70" rx="15" width="70" x="1365" y="-1635" />
<rect fill="#84A1AE" height="70" rx="15" width="70" x="1365" y="-2235" />
<rect fill="#84A1AE" height="70" rx="15" width="70" x="1465" y="-535" />
<rect fill="#84A1AE" height="70" rx="15" width="70" x="1465" y="-1235" />
<rect fill="#84A1AE" height="70" rx="15" width="70" x="1465" y="-1735" />
<rect fill="#84A1AE" height="70" rx="15" width="70" x="1465" y="-1835" />
<rect fill="#84A1AE" height="70" rx="15" width="70" x="1465" y="-1935" />
<rect fill="#84A1AE" height="70" rx="15" width="70" x="1465" y="-2135" />
<rect fill="#84A1AE" height="70" rx="15" width="70" x="1465" y="-2235" />
<rect fill="#84A1AE" height="70" rx="15" width="70" x="1565" y="-535" />
<rect fill="#84A1AE" height="70" rx="15" width="70" x="1565" y="-835" />
<rect fill="#84A1AE" height="70" rx="15" width="70" x="1565" y="-1835" />
<rect fill="#84A1AE" height="70" rx="15" width="70" x="1565" y="-2235" />
<rect fill="#84A1AE" height="70" rx="15" width="70" x="1665" y="-535" />
<rect fill="#84A1AE" height="70" rx="15" width="70" x="1665" y="-2235" />
<rect fill="#84A1AE" height="70" rx="15" width="70" x="1765" y="-535" />
<rect fill="#84A1AE" height="70" rx="15" width="70" x="1765" y="-2135" />
<rect fill="#84A1AE" height="70" rx="15" width="70" x="1765" y="-2235" />
<rect fill="#84A1AE" height="70" rx="15" width="70" x="1865" y="-535" />
<rect fill="#84A1AE" height="70" rx="15" width="70" x="1865" y="-1535" />
<rect fill="#84A1AE" height="70" rx="15" width="70" x="1865" y="-2235" />
<rect fill="#84A1AE" height="70" rx="15" width="70" x="1965" y="-535" />
<rect fill="#84A1AE" height="70" rx="15" width="70" x="1965" y="-935" />
<rect fill="#84A1AE" height="70" rx="15" width="70" x="1965" y="-1835" />
<rect fill="#84A1AE" height="70" rx="15" width="70" x="1965" y="-2035" />
<rect fill="#84A1AE" height="70" rx="15" width="70" x="1965" y="-2235" />
<rect fill="#84A1AE" height="70" rx="15" width="70" x="2065" y="-535" />
<rect fill="#84A1AE" height="70" rx="15" width="70" x="2065" y="-1135" />
<rect fill="#84A1AE" height="70" rx="15" width="70" x="2065" y="-1935" />
<rect fill="#84A1AE" height="70" rx="15" width="70" x="2065" y="-2235" />
<rect fill="#84A1AE" height="70" rx="15" width="70" x="2165" y="-535" />
<rect fill="#84A1AE" height="70" rx="15" width="70" x="2165" y="-635" />
<rect fill="#84A1AE" height="70" rx="15" width="70" x="2165" y="-735" />
<rect fill="#84A1AE" height="70" rx="15" width="70" x="2165" y="-835" />
<rect fill="#84A1AE" height="70" rx="15" width="70" x="2165" y="-935" />
<rect fill="#84A1AE" height="70" rx="15" width="70" x="2165" y="-1035" />
<rect fill="#84A1AE" height="70" rx="15" width="70" x="2165" y="-1135" />
<rect fill="#84A1AE" height="70" rx="15" width="70" x="2165" y="-1235" />
<rect fill="#84A1AE" height="70" rx="15" width="70" x="2165" y="-1335" />
<rect fill="#84A1AE" height="70" rx="15" width="70" x="2165" y="-1435" />
<rect fill="#84A1AE" height="70" rx="15" width="70" x="2165" y="-1535" />
<rect fill="#84A1AE" height="70" rx="15" width="70" x="2165" y="-1635" />
<rect fill="#84A1AE" height="70" rx="15" width="70" x="2165" y="-1735" />
<rect fill="#84A1AE" height="70" rx="15" width="70" x="2165" y="-1835" />
<rect fill="#84A1AE" height="70" rx="15" width="70" x="2165" y="-1935" />
<rect fill="#84A1AE" height="70" rx="15" width="70" x="2165" y="-2035" />
<rect fill="#84A1AE" height="70" rx="15" width="70" x="2165" y="-2135" />
<rect fill="#84A1AE" height="70" rx="15" width="70" x="2165" y="-2235" />
<circle cx="1400" cy="-2100" fill="#c1433c" r="35"> <animate attributeName="cy" dur="5.6000000000000005s" keyTimes="0.0;0.0476190476;0.0952380952;0.1428571429;0.1904761905;0.2380952381;0.2857142857;0.3333333333;0.380952381;0.4285714286;0.5714285714;0.619047619;0.7142857143;0.7619047619;0.8095238095;0.8571428571;0.9047619048;1.0" repeatCount="indefinite" values="-2100;-2100;-2000;-1900;-1900;-1800;-1700;-1600;-1500;-1400;-1400;-1300;-1300;-1200;-1100;-1100;-1000;-1000"/>
<animate attributeName="cx" dur="5.6000000000000005s" keyTimes="0.0;0.0476190476;0.1428571429;0.1904761905;0.4285714286;0.4761904762;0.5238095238;0.5714285714;0.619047619;0.6666666667;0.7142857143;0.8095238095;0.8571428571;0.9047619048;0.9523809524;1.0" repeatCount="indefinite" values="1400;1400;1400;1300;1300;1400;1500;1600;1600;1700;1600;1600;1700;1700;1800;1800"/>
<animate attributeName="visibility" dur="5.6000000000000005s" keyTimes="0.0;0.0476190476;0.9047619048;0.9523809524;1.0" repeatCount="indefinite" values="visible;visible;visible;hidden;hidden"/> </circle>
<circle cx="1000" cy="-900" fill="#2e6f9e" r="35"> <animate attributeName="cy" dur="5.6000000000000005s" keyTimes="0.0;0.0476190476;0.0952380952;0.1428571429;0.1904761905;0.2857142857;0.3333333333;0.380952381;0.4285714286;0.4761904762;0.5714285714;0.619047619;0.6666666667;0.7142857143;0.8571428571;0.9047619048;1.0" repeatCount="indefinite" values="-900;-900;-900;-800;-700;-700;-800;-800;-700;-800;-800;-900;-1000;-1100;-1100;-1000;-1000"/>
<animate attributeName="cx" dur="5.6000000000000005s" keyTimes="0.0;0.0476190476;0.0952380952;0.1904761905;0.2380952381;0.2857142857;0.4761904762;0.5238095238;0.5714285714;0.9047619048;0.9523809524;1.0" repeatCount="indefinite" values="1000;1000;900;900;1000;900;900;800;900;900;800;800"/>
<animate attributeName="visibility" dur="5.6000000000000005s" keyTimes="0.0;0.0476190476;1.0" repeatCount="indefinite" values="visible;visible;visible"/> </circle>
<circle cx="2100" cy="-600" fill="#6e81af" r="35"> <animate attributeName="cy" dur="5.6000000000000005s" keyTimes="0.0;0.0476190476;0.1428571429;0.1904761905;0.2380952381;0.2857142857;0.3333333333;0.5714285714;0.619047619;0.6666666667;0.7142857143;1.0" repeatCount="indefinite" values="-600;-600;-600;-700;-800;-900;-1000;-1000;-1100;-1100;-1000;-1000"/>
<animate attributeName="cx" dur="5.6000000000000005s" keyTimes="0.0;0.0476190476;0.4761904762;0.5238095238;0.5714285714;0.619047619;0.6666666667;0.7142857143;0.7619047619;0.8095238095;0.8571428571;0.9047619048;0.9523809524;1.0" repeatCount="indefinite" values="2100;2100;2100;2000;1900;1900;1800;1800;1900;1900;2000;2000;1900;1900"/>
<animate attributeName="visibility" dur="5.6000000000000005s" keyTimes="0.0;0.0476190476;1.0" repeatCount="indefinite" values="visible;visible;visible"/> </circle>
<circle cx="1500" cy="-900" fill="none" r="35" stroke="#c1433c" stroke-width="10"> <animate attributeName="cy" dur="5.6000000000000005s" keyTimes="0.0;0.0476190476;1.0" repeatCount="indefinite" values="-900;-900;-900"/>
<animate attributeName="cx" dur="5.6000000000000005s" keyTimes="0.0;0.0476190476;1.0" repeatCount="indefinite" values="1500;1500;1500"/>
<animate attributeName="visibility" dur="5.6000000000000005s" keyTimes="0.0;0.0476190476;0.9047619048;0.9523809524;1.0" repeatCount="indefinite" values="visible;visible;visible;hidden;hidden"/> </circle>
</svg>