<?xml version="1.0" encoding="UTF-8"?>
        <svg xmlns="http://www.w3.org/2000/svg" xmlns:xlink="http://www.w3.org/1999/xlink"
             width="270" height="270" viewBox="0 -2700 2700 2700">

<defs>

</defs>

<rect fill="#84A1AE" height="70" rx="15" width="70" x="465" y="-535" />
<rect fill="#84A1AE" height="70" rx="15" width="70" x="465" y="-635" />
<rect fill="#84A1AE" height="70" rx="15" width="70" x="465" y="-735" />
<rect fill="#84A1AE" height="70" rx="15" width="70" x="465" y="-835" />
<rect fill="#84A1AE" height="70" rx="15" width="70" x="465" y="-935" />
<rect fill="#84A1AE" height="70" rx="15" width="70" x="465" y="-1035" />
<rect fill="#84A1AE" height="70" rx="15" width="70" x="465" y="-1135" />
<rect fill="#84A1AE" height="70" rx="15" width="70" x="465" y="-1235" />
<rect fill="#84A1AE" height="70" rx="15" width="70" x="465" y="-1335" />
<rect fill="#84A1AE" height="70" rx="15" width="70" x="465" y="-1435" />
<rect fill="#84A1AE" height="70" rx="15" width="70" x="465" y="-1535" />
<rect fill="#84A1AE" height="70" rx="15" width="70" x="465" y="-1635" />
<rect fill="#84A1AE" height="70" rx="15" width="70" x="465" y="-1735" />
<rect fill="#84A1AE" height="70" rx="15" width="70" x="465" y="-1835" />
<rect fill="#84A1AE" height="70" rx="15" width="70" x="465" y="-1935" />
<rect fill="#84A1AE" height="70" rx="15" width="70" x="465" y="-2035" />
<rect fill="#84A1AE" height="70" rx="15" width="70" x="465" y="-2135" />
<rect fill="#84A1AE" height="70" rx="15" width="70" x="465" y="-2235" />
<rect fill="#84A1AE" height="70" rx="15" width="70" x="565" y="-535" />
<rect fill="#84A1AE" height="70" rx="15" width="70" x="565" y="-1335" />
<rect fill="#84A1AE" height="70" rx="15" width="70" x="565" y="-2235" />
<rect fill="#84A1AE" height="70" rx="15" width="70" x="665" y="-535" />
<rect fill="#84A1AE" height="70" rx="15" width="70" x="665" y="-735" />
<rect fill="#84A1AE" height="70" rx="15" width="70" x="665" y="-835" />
<rect fill="#84A1AE" height="70" rx="15" width="70" x="665" y="-1535" />
<rect fill="#84A1AE" height="70" rx="15" width="70" x="665" y="-2235" />
<rect fill="#84A1AE" height="70" rx="15" width="70" x="765" y="-535" />
<rect fill="#84A1AE" height="70" rx="15" width="70" x="765" y="-835" />
<rect fill="#84A1AE" height="70" rx="15" width="70" x="765" y="-935" />
<rect fill="#84A1AE" height="70" rx="15" width="70" x="765" y="-1735" />
<rect fill="#84A1AE" height="70" rx="15" width="70" x="765" y="-2235" />
<rect fill="#84A1AE" height="70" rx="15" width="70" x="865" y="-535" />
<rect fill="#84A1AE" height="70" rx="15" width="70" x="865" y="-835" />
<rect fill="#84A1AE" height="70" rx="15" width="70" x="865" y="-935" />
<rect fill="#84A1AE" height="70" rx="15" width="70" x="865" y="-1035" />
<rect fill="#84A1AE" height="70" rx="15" width="70" x="865" y="-1235" />
<rect fill="#84A1AE" height="70" rx="15" width="70" x="865" y="-1635" />
<rect fill="#84A1AE" height="70" rx="15" width="70" x="865" y="-1735" />
<rect fill="#84A1AE" height="70" rx="15" width="70" x="865" y="-2235" />
<rect fill="#84A1AE" height="70" rx="15" width="70" x="965" y="-535" />
<rect fill="#84A1AE" height="70" rx="15" width="70" x="965" y="-1235" />
<rect fill="#84A1AE" height="70" rx="15" width="70" x="965" y="-1335" />
<rect fill="#84A1AE" height="70" rx="15" width="70" x="965" y="-2235" />
<rect fill="#84A1AE" height="70" rx="15" width="70" x="1065" y="-535" />
<rect fill="#84A1AE" height="70" rx="15" width="70" x="1065" y="-835" />
<rect fill="#84A1AE" height="70" rx="15" width="70" x="1065" y="-2235" />
<rect fill="#84A1AE" height="70" rx="15" width="70" x="1165" y="-535" />
<rect fill="#84A1AE" height="70" rx="15" width="70" x="1165" y="-735" />
<rect fill="#84A1AE" height="70" rx="15" width="70" x="1165" y="-1735" />
<rect fill="#84A1AE" height="70" rx="15" width="70" x="1165" y="-1935" />
<rect fill="#84A1AE" height="70" rx="15" width="70" x="1165" y="-2135" />
<rect fill="#84A1AE" height="70" rx="15" width="70" x="1165" y="-2235" />
<rect fill="#84A1AE" height="70" rx="15" width="70" x="1265" y="-535" />
<rect fill="#84A1AE" height="70" rx="15" width="70" x="1265" y="-1135" />
<rect fill="#84A1AE" height="70" rx="15" width="70" x="1265" y="-1735" />
<rect fill="#84A1AE" height="70" rx="15" width="70" x="1265" y="-2235" />
<rect fill="#84A1AE" height="70" rx="15" width="70" x="1365" y="-535" />
<rect fill="#84A1AE" height="70" rx="15" width="70" x="1365" y="-735" />
<rect fill="#84A1AE" height="70" rx="15" width="70" x="1365" y="-1135" />
<rect fill="#84A1AE" height="70" rx="15" width="70" x="1365" y="-1635" />
<rect fill="#84A1AE" height="70" rx="15" width="70" x="1365" y="-1735" />
<rect fill="#84A1AE" height="70" rx="15" width="70" x="1365" y="-1835" />
<rect fill="#84A1AE" height="70" rx="15" width="70" x="1365" y="-2035" />
<rect fill="#84A1AE" height="70" rx="15" width="70" x="1365" y="-2235" />
<rect fill="#84A1AE" height="70" rx="15" width="70" x="1465" y="-535" />
<rect fill="#84A1AE" height="70" rx="15" width="70" x="1465" y="-1235" />
<rect fill="#84A1AE" height="70" rx="15" width="70" x="1465" y="-1335" />
<rect fill="#84A1AE" height="70" rx="15" width="70" x="1465" y="-1435" />
<rect fill="#84A1AE" height="70" rx="15" width="70" x="1465" y="-2235" />
<rect fill="#84A1AE" height="70" rx="15" width="70" x="1565" y="-535" />
<rect fill="#84A1AE" height="70" rx="15" width="70" x="1565" y="-835" />
<rect fill="#84A1AE" height="70" rx="15" width="70" x="1565" y="-1035" />
<rect fill="#84A1AE" height="70" rx="15" width="70" x="1565" y="-1235" />
<rect fill="#84A1AE" height="70" rx="15" width="70" x="1565" y="-1435" />
<rect fill="#84A1AE" height="70" rx="15" width="70" x="1565" y="-1635" />
<rect fill="#84A1AE" height="70" rx="15" width="70" x="1565" y="-1735" />
<rect fill="#84A1AE" height="70" rx="15" width="70" x="1565" y="-2135" />
<rect fill="#84A1AE" height="70" rx="15" width="70" x="1565" y="-2235" />
<rect fill="#84A1AE" height="70" rx="15" width="70" x="1665" y="-535" />
<rect fill="#84A1AE" height="70" rx="15" width="70" x="1665" y="-1035" />
<rect fill="#84A1AE" height="70" rx="15" width="70" x="1665" y="-1135" />
<rect fill="#84A1AE" height="70" rx="15" width="70" x="1665" y="-1535" />
<rect fill="#84A1AE" height="70" rx="15" width="70" x="1665" y="-1735" />
<rect fill="#84A1AE" height="70" rx="15" width="70" x="1665" y="-1835" />
<rect fill="#84A1AE" height="70" rx="15" width="70" x="1665" y="-2235" />
<rect fill="#84A1AE" height="70" rx="15" width="70" x="1765" y="-535" />
<rect fill="#84A1AE" height="70" rx="15" width="70" x="1765" y="-2235" />
<rect fill="#84A1AE" height="70" rx="15" width="70" x="1865" y="-535" />
<rect fill="#84A1AE" height="70" rx="15" width="70" x="1865" y="-935" />
<rect fill="#84A1AE" height="70" rx="15" width="70" x="1865" y="-1135" />
<rect fill="#84A1AE" height="70" rx="15" width="70" x="1865" y="-1235" />
<rect fill="#84A1AE" height="70" rx="15" width="70" x="1865" y="-2035" />
<rect fill="#84A1AE" height="70" rx="15" width="70" x="1865" y="-2135" />
<rect fill="#84A1AE" height="70" rx="15" width="70" x="1865" y="-2235" />
<rect fill="#84A1AE" height="70" rx="15" width="70" x="1965" y="-535" />
<rect fill="#84A1AE" height="70" rx="15" width="70" x="1965" y="-735" />
<rect fill="#84A1AE" height="70" rx="15" width="70" x="1965" y="-2235" />
<rect fill="#84A1AE" height="70" rx="15" width="70" x="2065" y="-535" />
<rect fill="#84A1AE" height="70" rx="15" width="70" x="2065" y="-635" />
<rect fill="#84A1AE" height="70" rx="15" width="70" x="2065" y="-935" />
<rect fill="#84A1AE" height="70" rx="15" width="70" x="2065" y="-1335" />
<rect fill="#84A1AE" height="70" rx="15" width="70" x="2065" y="-1535" />
<rect fill="#84A1AE" height="70" rx="15" width="70" x="2065" y="-1635" />
<rect fill="#84A1AE" height="70" rx="15" width="70" x="2065" y="-2135" />
<rect fill="#84A1AE" height="70" rx="15" width="70" x="2065" y="-2235" />
<rect fill="#84A1AE" height="70" rx="15" width="70" x="2165" y="-535" />
<rect fill="#84A1AE" height="70" rx="15" width="70" x="2165" y="-635" />
<rect fill="#84A1AE" height="70" rx="15" width="70" x="2165" y="-735" />
<rect fill="#84A1AE" height="70" rx="15" width="70" x="2165" y="-835" />
<rect fill="#84A1AE" height="70" rx="15" width="70" x="2165" y="-935" />
<rect fill="#84A1AE" height="70" rx="15" width="70" x="2165" y="-1035" />
<rect fill="#84A1AE" height="70" rx="15" width="70" x="2165" y="-1135" />
<rect fill="#84A1AE" height="70" rx="15" width="70" x="2165" y="-1235" />
<rect fill="#84A1AE" height="70" rx="15" width="70" x="2165" y="-1335" />
<rect fill="#84A1AE" height="70" rx="15" width="70" x="2165" y="-1435" />
<rect fill="#84A1AE" height="70" rx="15" width="70" x="2165" y="-1535" />
<rect fill="#84A1AE" height="70" rx="15" width="70" x="2165" y="-1635" />
<rect fill="#84A1AE" height="70" rx="15" width="70" x="2165" y="-1735" />
<rect fill="#84A1AE" height="70" rx="15" width="70" x="2165" y="-1835" />
<rect fill="#84A1AE" height="70" rx="15" width="70" x="2165" y="-1935" />
<rect fill="#84A1AE" height="70" rx="15" width="70" x="2165" y="-2035" />
<rect fill="#84A1AE" height="70" rx="15" width="70" x="2165" y="-2135" />
<rect fill="#84A1AE" height="70" rx="15" width="70" x="2165" y="-2235" />
<circle cx="2000" cy="-1700" fill="#c1433c" r="35"> <animate attributeName="cy" dur="16.8s" keyTimes="0.0;0.0163934426;0.0327868852;0.0491803279;0.0655737705;0.0819672131;0.0983606557;0.1147540984;0.131147541;0.1475409836;0.393442623;0.4098360656;0.4262295082;0.4426229508;0.4590163934;0.5901639344;0.606557377;0.6229508197;0.6393442623;0.737704918;0.7540983607;0.9016393443;0.9180327869;0.9672131148;0.9836065574;1.0" repeatCount="indefinite" values="-1700;-1700;-1800;-1800;-1700;-1600;-1500;-1500;-1400;-1300;-1300;-1200;-1200;-1100;-1000;-1000;-1100;-1100;-1000;-1000;-900;-900;-800;-800;-700;-700"/>
<animate attributeName="cx" dur="16.8s" keyTimes="0.0;0.0163934426;0.0327868852;0.0491803279;0.0983606557;0.1147540984;0.1475409836;0.1639344262;0.1803278689;0.1967213115;0.2131147541;0.2295081967;0.2459016393;0.262295082;0.2786885246;0.2950819672;0.3114754098;0.3278688525;0.3442622951;0.3606557377;0.3770491803;0.393442623;0.4098360656;0.4262295082;0.4590163934;0.4754098361;0.4918032787;0.5081967213;0.5245901639;0.5409836066;0.5573770492;0.5737704918;0.5901639344;0.6393442623;0.6557377049;0.6721311475;0.6885245902;0.7049180328;0.7213114754;0.737704918;0.9180327869;0.9344262295;0.9508196721;0.9672131148;1.0" repeatCount="indefinite" values="2000;2000;2000;1900;1900;1800;1800;1700;1800;1700;1800;1700;1800;1700;1800;1700;1800;1700;1800;1700;1800;1700;1700;1800;1800;1900;1800;1900;1800;1900;1800;1900;1800;1800;1900;1800;1900;1800;1900;2000;2000;1900;1800;1700;1700"/>
<animate attributeName="visibility" dur="16.8s" keyTimes="0.0;0.0163934426;0.9672131148;0.9836065574;1.0" repeatCount="indefinite" values="visible;visible;visible;hidden;hidden"/> </circle>
<circle cx="800" cy="-2000" fill="#2e6f9e" r="35"> <animate attributeName="cy" dur="16.8s" keyTimes="0.0;0.0163934426;0.0327868852;0.0819672131;0.0983606557;0.1147540984;0.131147541;0.1475409836;0.1639344262;0.1803278689;0.2131147541;0.2295081967;0.2786885246;0.2950819672;0.3114754098;0.3278688525;0.3442622951;0.4426229508;0.4590163934;0.4754098361;0.4918032787;0.5081967213;0.5245901639;0.5409836066;0.5573770492;0.6229508197;0.6393442623;0.6557377049;0.6721311475;0.6885245902;0.7049180328;0.7213114754;0.7868852459;0.8032786885;0.8196721311;0.8360655738;0.868852459;0.8852459016;0.9016393443;0.9180327869;1.0" repeatCount="indefinite" values="-2000;-2000;-2100;-2100;-2000;-2000;-1900;-1800;-1800;-1900;-1900;-1800;-1800;-1900;-1900;-1800;-1700;-1700;-1800;-1800;-1700;-1700;-1600;-1600;-1500;-1500;-1400;-1300;-1200;-1200;-1300;-1200;-1200;-1100;-1100;-1200;-1200;-1100;-1100;-1000;-1000"/>
<animate attributeName="cx" dur="16.8s" keyTimes="0.0;0.0163934426;0.0327868852;0.0491803279;0.0655737705;0.0983606557;0.1147540984;0.1475409836;0.1639344262;0.1803278689;0.1967213115;0.2131147541;0.2295081967;0.2459016393;0.262295082;0.2786885246;0.2950819672;0.3114754098;0.3606557377;0.3770491803;0.393442623;0.4098360656;0.4262295082;0.4426229508;0.5245901639;0.5409836066;0.5737704918;0.5901639344;0.606557377;0.7213114754;0.737704918;0.7540983607;0.8032786885;0.8196721311;0.8360655738;0.8524590164;0.868852459;0.9180327869;0.9344262295;0.9508196721;1.0" repeatCount="indefinite" values="800;800;800;700;600;600;700;700;800;800;900;800;800;900;1000;900;900;1000;1000;1100;1000;1000;1100;1000;1000;1100;1100;1200;1300;1300;1200;1100;1100;1200;1200;1300;1200;1200;1300;1400;1400"/>
<animate attributeName="visibility" dur="16.8s" keyTimes="0.0;0.0163934426;1.0" repeatCount="indefinite" values="visible;visible;visible"/> </circle>
<circle cx="600" cy="-600" fill="#6e81af" r="35"> <animate attributeName="cy" dur="16.8s" keyTimes="0.0;0.0163934426;0.0327868852;0.0491803279;0.0655737705;0.0819672131;0.0983606557;0.1147540984;0.1639344262;0.1803278689;0.1967213115;0.2131147541;0.2459016393;0.262295082;0.2786885246;0.2950819672;0.3114754098;0.3278688525;0.3442622951;0.3606557377;0.4098360656;0.4262295082;0.4426229508;0.4590163934;0.4754098361;0.4918032787;0.5081967213;0.606557377;0.6229508197;0.6393442623;0.6557377049;0.6721311475;0.737704918;0.7540983607;0.7868852459;0.8032786885;0.8196721311;0.8360655738;0.8524590164;0.868852459;0.8852459016;0.9016393443;1.0" repeatCount="indefinite" values="-600;-600;-700;-800;-900;-1000;-1100;-1200;-1200;-1300;-1300;-1400;-1400;-1300;-1400;-1400;-1500;-1500;-1600;-1500;-1500;-1400;-1300;-1200;-1100;-1100;-1000;-1000;-1100;-1000;-1100;-1000;-1000;-1100;-1100;-1000;-1000;-900;-800;-700;-600;-700;-700"/>
<animate attributeName="cx" dur="16.8s" keyTimes="0.0;0.0163934426;0.131147541;0.1475409836;0.1639344262;0.1803278689;0.1967213115;0.2131147541;0.2295081967;0.2459016393;0.2786885246;0.2950819672;0.3114754098;0.3278688525;0.3606557377;0.3770491803;0.393442623;0.4098360656;0.5081967213;0.5245901639;0.5409836066;0.5573770492;0.5737704918;0.5901639344;0.606557377;0.6721311475;0.6885245902;0.7049180328;0.7213114754;0.737704918;0.9016393443;0.9180327869;0.9344262295;0.9508196721;0.9672131148;1.0" repeatCount="indefinite" values="600;600;600;700;800;800;900;900;800;900;900;1000;1000;1100;1100;1200;1300;1200;1200;1300;1200;1300;1400;1300;1200;1200;1300;1400;1400;1500;1500;1600;1600;1700;1600;1600"/>
<animate attributeName="visibility" dur="16.8s" keyTimes="0.0;0.0163934426;1.0" repeatCount="indefinite" values="visible;visible;visible"/> </circle>
<circle cx="1000" cy="-900" fill="none" r="35" stroke="#c1433c" stroke-width="10"> <animate attributeName="cy" dur="16.8s" keyTimes="0.0;0.0163934426;1.0" repeatCount="indefinite" values="-900;-900;-900"/>
<animate attributeName="cx" dur="16.8s" keyTimes="0.0;0.0163934426;1.0" repeatCount="indefinite" values="1000;1000;1000"/>
<animate attributeName="visibility" dur="16.8s" keyTimes="0.0;0.0163934426;0.9672131148;0.9836065574;1.0" repeatCount="indefinite" values="visible;visible;visible;hidden;hidden"/> </circle>
</svg>